<?xml version="1.0" encoding="UTF-8"?>
<svg xmlns="http://www.w3.org/2000/svg" xmlns:xlink="http://www.w3.org/1999/xlink" xmlns:svgjs="http://svgjs.com/svgjs" version="1.1" width="512" height="512" x="0" y="0" viewBox="0 0 512.001 512.001" style="enable-background:new 0 0 512 512" xml:space="preserve" class="">
  <g>
<path xmlns="http://www.w3.org/2000/svg" style="" d="M7.501,95.785v372.073c0,20.237,16.405,36.641,36.641,36.641h423.716  c20.236,0,36.641-16.405,36.641-36.641V95.785H7.501z" fill="#1694f4" data-original="#70b5e8" class=""/>
<path xmlns="http://www.w3.org/2000/svg" style="" d="M37.503,467.857V95.785H7.501v372.074c0,20.237,16.405,36.641,36.641,36.641h30.002  C53.908,504.5,37.503,488.095,37.503,467.857z" fill="#008dfd" data-original="#52a5d8" class=""/>
<path xmlns="http://www.w3.org/2000/svg" style="" d="M504.5,44.142c0-20.236-16.405-36.641-36.641-36.641H44.142C23.906,7.5,7.501,23.905,7.501,44.142  v62.401H504.5V44.142z" fill="#a0a0a0" data-original="#666666" class=""/>
<path xmlns="http://www.w3.org/2000/svg" style="" d="M74.18,7.5H44.142C23.906,7.5,7.501,23.905,7.501,44.142v62.4h30.037v-62.4  C37.538,23.905,53.943,7.5,74.18,7.5z" fill="#888888" data-original="#535454" class=""/>
<path xmlns="http://www.w3.org/2000/svg" d="M287.038,263.951c0,4.142,3.357,7.5,7.5,7.5h28.502c4.143,0,7.5-3.358,7.5-7.5c0-4.143-3.357-7.5-7.5-7.5h-28.502  C290.395,256.451,287.038,259.808,287.038,263.951z" fill="#000000" data-original="#000000"/>
<path xmlns="http://www.w3.org/2000/svg" d="M271.287,263.951c0-4.143-3.357-7.5-7.5-7.5h-98.402c-4.142,0-7.5,3.357-7.5,7.5c0,4.142,3.358,7.5,7.5,7.5h98.402  C267.929,271.451,271.287,268.093,271.287,263.951z" fill="#000000" data-original="#000000"/>
<path xmlns="http://www.w3.org/2000/svg" d="M448.048,256.451h-94.756c-4.143,0-7.5,3.357-7.5,7.5c0,4.142,3.357,7.5,7.5,7.5h94.756c4.143,0,7.5-3.358,7.5-7.5  C455.548,259.808,452.19,256.451,448.048,256.451z" fill="#000000" data-original="#000000"/>
<path xmlns="http://www.w3.org/2000/svg" d="M262.786,199.447c4.143,0,7.5-3.357,7.5-7.5c0-4.143-3.357-7.5-7.5-7.5h-28.502c-4.143,0-7.5,3.357-7.5,7.5  c0,4.143,3.357,7.5,7.5,7.5H262.786z" fill="#000000" data-original="#000000"/>
<path xmlns="http://www.w3.org/2000/svg" d="M109.277,307.454h28.502c4.142,0,7.5-3.358,7.5-7.5c0-4.143-3.358-7.5-7.5-7.5h-28.502c-4.143,0-7.5,3.357-7.5,7.5  C101.777,304.095,105.134,307.454,109.277,307.454z" fill="#000000" data-original="#000000"/>
<path xmlns="http://www.w3.org/2000/svg" d="M109.277,379.458h28.502c4.142,0,7.5-3.358,7.5-7.5c0-4.143-3.358-7.5-7.5-7.5h-28.502c-4.143,0-7.5,3.357-7.5,7.5  C101.777,376.1,105.134,379.458,109.277,379.458z" fill="#000000" data-original="#000000"/>
<path xmlns="http://www.w3.org/2000/svg" d="M391.939,184.446h-98.401c-4.143,0-7.5,3.357-7.5,7.5c0,4.143,3.357,7.5,7.5,7.5h98.402c4.142,0,7.5-3.357,7.5-7.5  C399.44,187.803,396.082,184.446,391.939,184.446z" fill="#000000" data-original="#000000"/>
<path xmlns="http://www.w3.org/2000/svg" d="M355.365,235.449c4.143,0,7.5-3.357,7.5-7.5c0-4.143-3.357-7.5-7.5-7.5h-28.502c-4.143,0-7.5,3.357-7.5,7.5  c0,4.143,3.357,7.5,7.5,7.5H355.365z" fill="#000000" data-original="#000000"/>
<path xmlns="http://www.w3.org/2000/svg" d="M190.208,227.949c0,4.143,3.357,7.5,7.5,7.5h98.402c4.143,0,7.5-3.357,7.5-7.5c0-4.143-3.357-7.5-7.5-7.5h-98.402  C193.566,220.448,190.208,223.806,190.208,227.949z" fill="#000000" data-original="#000000"/>
<path xmlns="http://www.w3.org/2000/svg" d="M197.708,343.456h28.502c4.143,0,7.5-3.358,7.5-7.5c0-4.143-3.357-7.5-7.5-7.5h-28.502c-4.143,0-7.5,3.357-7.5,7.5  C190.208,340.098,193.566,343.456,197.708,343.456z" fill="#000000" data-original="#000000"/>
<path xmlns="http://www.w3.org/2000/svg" d="M362.865,335.955c0-4.143-3.357-7.5-7.5-7.5h-98.403c-4.143,0-7.5,3.357-7.5,7.5c0,4.142,3.357,7.5,7.5,7.5h98.403  C359.507,343.456,362.865,340.098,362.865,335.955z" fill="#000000" data-original="#000000"/>
<path xmlns="http://www.w3.org/2000/svg" d="M109.277,199.447h94.756c4.142,0,7.5-3.357,7.5-7.5c0-4.143-3.358-7.5-7.5-7.5h-94.756c-4.143,0-7.5,3.357-7.5,7.5  C101.777,196.089,105.134,199.447,109.277,199.447z" fill="#000000" data-original="#000000"/>
<path xmlns="http://www.w3.org/2000/svg" d="M109.277,163.461h93.308c4.143,0,7.5-3.357,7.5-7.5c0-4.143-3.357-7.5-7.5-7.5h-93.308c-4.143,0-7.5,3.357-7.5,7.5  C101.777,160.104,105.134,163.461,109.277,163.461z" fill="#000000" data-original="#000000"/>
<path xmlns="http://www.w3.org/2000/svg" d="M109.277,451.462h93.308c4.143,0,7.5-3.358,7.5-7.5c0-4.143-3.357-7.5-7.5-7.5h-93.308c-4.143,0-7.5,3.357-7.5,7.5  C101.777,448.104,105.134,451.462,109.277,451.462z" fill="#000000" data-original="#000000"/>
<path xmlns="http://www.w3.org/2000/svg" d="M64.658,63.95c0.45-0.19,0.89-0.42,1.3-0.69c0.41-0.28,0.79-0.59,1.14-0.939c0.341-0.341,0.65-0.73,0.931-1.141  c0.27-0.399,0.5-0.84,0.689-1.29c0.181-0.45,0.33-0.92,0.42-1.399c0.101-0.49,0.15-0.98,0.15-1.471c0-0.489-0.05-0.979-0.15-1.46  c-0.09-0.48-0.239-0.95-0.42-1.41c-0.189-0.449-0.42-0.89-0.689-1.29c-0.28-0.409-0.59-0.8-0.931-1.14  c-0.35-0.35-0.729-0.66-1.14-0.939c-0.41-0.271-0.85-0.5-1.3-0.681c-0.45-0.189-0.92-0.34-1.4-0.43c-0.97-0.2-1.97-0.2-2.93,0  c-0.48,0.09-0.96,0.24-1.41,0.43c-0.45,0.181-0.89,0.41-1.29,0.681c-0.41,0.279-0.8,0.59-1.14,0.939  c-0.351,0.34-0.66,0.73-0.94,1.14c-0.27,0.4-0.5,0.841-0.689,1.29c-0.181,0.45-0.33,0.931-0.42,1.41  c-0.101,0.48-0.15,0.971-0.15,1.46c0,0.49,0.05,0.98,0.15,1.471c0.09,0.479,0.239,0.949,0.42,1.399  c0.189,0.45,0.42,0.891,0.689,1.29c0.28,0.41,0.59,0.8,0.94,1.141c0.34,0.35,0.729,0.659,1.14,0.939c0.4,0.271,0.84,0.5,1.29,0.69  c0.45,0.18,0.93,0.33,1.41,0.42c0.479,0.1,0.97,0.149,1.46,0.149s0.981-0.05,1.47-0.149C63.738,64.28,64.208,64.13,64.658,63.95z" fill="#000000" data-original="#000000"/>
<path xmlns="http://www.w3.org/2000/svg" d="M99.781,52.859c-0.28-0.409-0.59-0.8-0.931-1.14c-0.35-0.35-0.729-0.66-1.14-0.939c-0.41-0.271-0.85-0.5-1.3-0.681  c-0.45-0.189-0.92-0.34-1.4-0.43c-0.97-0.2-1.97-0.2-2.93,0c-0.48,0.09-0.96,0.24-1.41,0.43c-0.45,0.181-0.89,0.41-1.29,0.681  c-0.41,0.279-0.8,0.59-1.14,0.939c-0.351,0.34-0.66,0.73-0.94,1.14c-0.27,0.4-0.5,0.841-0.689,1.29  c-0.181,0.45-0.33,0.931-0.42,1.41c-0.101,0.48-0.15,0.971-0.15,1.46c0,0.49,0.05,0.98,0.15,1.471  c0.09,0.479,0.239,0.949,0.42,1.399c0.189,0.45,0.42,0.891,0.689,1.29c0.28,0.41,0.59,0.8,0.94,1.141  c0.34,0.35,0.729,0.659,1.14,0.939c0.4,0.271,0.84,0.5,1.29,0.69c0.45,0.18,0.93,0.33,1.41,0.42c0.479,0.1,0.97,0.149,1.46,0.149  c0.49,0,0.98-0.05,1.47-0.149c0.48-0.09,0.95-0.24,1.4-0.42c0.45-0.19,0.89-0.42,1.3-0.69c0.41-0.28,0.79-0.59,1.14-0.939  c0.341-0.341,0.65-0.73,0.931-1.141c0.27-0.399,0.5-0.84,0.689-1.29c0.181-0.45,0.33-0.92,0.42-1.399  c0.101-0.49,0.15-0.98,0.15-1.471c0-0.489-0.05-0.979-0.15-1.46c-0.09-0.48-0.239-0.95-0.42-1.41  C100.281,53.699,100.051,53.259,99.781,52.859z" fill="#000000" data-original="#000000"/>
<path xmlns="http://www.w3.org/2000/svg" d="M131.532,52.859c-0.28-0.409-0.59-0.8-0.94-1.14c-0.34-0.35-0.72-0.66-1.13-0.939c-0.41-0.271-0.85-0.5-1.3-0.681  c-0.45-0.189-0.92-0.34-1.4-0.43c-0.97-0.2-1.97-0.2-2.93,0c-0.48,0.09-0.96,0.24-1.41,0.43c-0.45,0.181-0.89,0.41-1.29,0.681  c-0.41,0.279-0.8,0.59-1.14,0.939c-0.351,0.34-0.66,0.73-0.94,1.14c-0.27,0.4-0.5,0.841-0.689,1.29  c-0.181,0.45-0.33,0.931-0.42,1.41c-0.101,0.48-0.15,0.971-0.15,1.46c0,0.49,0.05,0.98,0.15,1.471  c0.09,0.479,0.239,0.949,0.42,1.399c0.189,0.45,0.42,0.891,0.689,1.29c0.28,0.41,0.59,0.8,0.94,1.141  c0.34,0.35,0.729,0.659,1.14,0.939c0.4,0.271,0.84,0.5,1.29,0.69c0.45,0.18,0.93,0.33,1.41,0.42c0.479,0.1,0.97,0.149,1.46,0.149  c0.49,0,0.98-0.05,1.47-0.149c0.48-0.09,0.95-0.24,1.4-0.42c0.45-0.19,0.89-0.42,1.3-0.69c0.41-0.28,0.79-0.59,1.13-0.939  c0.351-0.341,0.66-0.73,0.94-1.141c0.27-0.399,0.5-0.84,0.689-1.29c0.181-0.45,0.33-0.92,0.42-1.399  c0.101-0.49,0.15-0.98,0.15-1.471c0-0.489-0.05-0.979-0.15-1.46c-0.09-0.48-0.239-0.96-0.42-1.41  C132.033,53.699,131.802,53.259,131.532,52.859z" fill="#000000" data-original="#000000"/>
<path xmlns="http://www.w3.org/2000/svg" d="M164.296,49.521c-4.143,0-7.5,3.357-7.5,7.5c0,4.142,3.357,7.5,7.5,7.5H381.81c4.143,0,7.5-3.357,7.5-7.5  s-3.357-7.5-7.5-7.5C381.81,49.521,164.296,49.521,164.296,49.521z" fill="#000000" data-original="#000000"/>
<path xmlns="http://www.w3.org/2000/svg" d="M412.812,57.021c0,4.142,3.357,7.5,7.5,7.5h28.502c4.143,0,7.5-3.357,7.5-7.5s-3.357-7.5-7.5-7.5h-28.502  C416.17,49.521,412.812,52.878,412.812,57.021z" fill="#000000" data-original="#000000"/>
<path xmlns="http://www.w3.org/2000/svg" d="M77.738,184.446H62.79c-4.143,0-7.5,3.357-7.5,7.5c0,4.143,3.357,7.5,7.5,7.5h14.948c4.143,0,7.5-3.357,7.5-7.5  S81.881,184.446,77.738,184.446z" fill="#000000" data-original="#000000"/>
<path xmlns="http://www.w3.org/2000/svg" d="M77.738,148.444H62.79c-4.143,0-7.5,3.357-7.5,7.5c0,4.143,3.357,7.5,7.5,7.5h14.948c4.143,0,7.5-3.357,7.5-7.5  S81.881,148.444,77.738,148.444z" fill="#000000" data-original="#000000"/>
<path xmlns="http://www.w3.org/2000/svg" d="M77.738,220.448H62.79c-4.143,0-7.5,3.357-7.5,7.5c0,4.143,3.357,7.5,7.5,7.5h14.948c4.143,0,7.5-3.357,7.5-7.5  S81.881,220.448,77.738,220.448z" fill="#000000" data-original="#000000"/>
<path xmlns="http://www.w3.org/2000/svg" d="M77.738,256.451H62.79c-4.143,0-7.5,3.357-7.5,7.5c0,4.142,3.357,7.5,7.5,7.5h14.948c4.143,0,7.5-3.358,7.5-7.5  C85.239,259.808,81.881,256.451,77.738,256.451z" fill="#000000" data-original="#000000"/>
<path xmlns="http://www.w3.org/2000/svg" d="M77.738,292.453H62.79c-4.143,0-7.5,3.357-7.5,7.5c0,4.142,3.357,7.5,7.5,7.5h14.948c4.143,0,7.5-3.358,7.5-7.5  C85.239,295.81,81.881,292.453,77.738,292.453z" fill="#000000" data-original="#000000"/>
<path xmlns="http://www.w3.org/2000/svg" d="M77.738,328.455H62.79c-4.143,0-7.5,3.357-7.5,7.5c0,4.142,3.357,7.5,7.5,7.5h14.948c4.143,0,7.5-3.358,7.5-7.5  C85.239,331.812,81.881,328.455,77.738,328.455z" fill="#000000" data-original="#000000"/>
<path xmlns="http://www.w3.org/2000/svg" d="M77.738,364.457H62.79c-4.143,0-7.5,3.357-7.5,7.5c0,4.142,3.357,7.5,7.5,7.5h14.948c4.143,0,7.5-3.358,7.5-7.5  C85.239,367.814,81.881,364.457,77.738,364.457z" fill="#000000" data-original="#000000"/>
<path xmlns="http://www.w3.org/2000/svg" d="M77.738,400.459H62.79c-4.143,0-7.5,3.357-7.5,7.5c0,4.142,3.357,7.5,7.5,7.5h14.948c4.143,0,7.5-3.358,7.5-7.5  C85.239,403.816,81.881,400.459,77.738,400.459z" fill="#000000" data-original="#000000"/>
<path xmlns="http://www.w3.org/2000/svg" d="M77.738,436.461H62.79c-4.143,0-7.5,3.357-7.5,7.5c0,4.142,3.357,7.5,7.5,7.5h14.948c4.143,0,7.5-3.358,7.5-7.5  C85.239,439.819,81.881,436.461,77.738,436.461z" fill="#000000" data-original="#000000"/>
<path xmlns="http://www.w3.org/2000/svg" d="M109.277,271.451h28.502c4.142,0,7.5-3.358,7.5-7.5c0-4.143-3.358-7.5-7.5-7.5h-28.502c-4.143,0-7.5,3.357-7.5,7.5  C101.777,268.093,105.134,271.451,109.277,271.451z" fill="#000000" data-original="#000000"/>
<path xmlns="http://www.w3.org/2000/svg" d="M234.285,415.46h28.502c4.143,0,7.5-3.358,7.5-7.5c0-4.143-3.357-7.5-7.5-7.5h-28.502c-4.143,0-7.5,3.357-7.5,7.5  C226.784,412.102,230.141,415.46,234.285,415.46z" fill="#000000" data-original="#000000"/>
<path xmlns="http://www.w3.org/2000/svg" d="M293.538,415.46h98.402c4.142,0,7.5-3.358,7.5-7.5c0-4.143-3.358-7.5-7.5-7.5h-98.402c-4.143,0-7.5,3.357-7.5,7.5  C286.038,412.102,289.395,415.46,293.538,415.46z" fill="#000000" data-original="#000000"/>
<path xmlns="http://www.w3.org/2000/svg" d="M109.277,415.46h94.756c4.142,0,7.5-3.358,7.5-7.5c0-4.143-3.358-7.5-7.5-7.5h-94.756c-4.143,0-7.5,3.357-7.5,7.5  C101.777,412.102,105.134,415.46,109.277,415.46z" fill="#000000" data-original="#000000"/>
<path xmlns="http://www.w3.org/2000/svg" d="M448.048,400.459h-28.502c-4.143,0-7.5,3.357-7.5,7.5c0,4.142,3.357,7.5,7.5,7.5h28.502c4.143,0,7.5-3.358,7.5-7.5  C455.548,403.816,452.19,400.459,448.048,400.459z" fill="#000000" data-original="#000000"/>
<path xmlns="http://www.w3.org/2000/svg" d="M467.858,0h-15.794c-4.143,0-7.5,3.357-7.5,7.5s3.357,7.5,7.5,7.5h15.794c16.068,0,29.142,13.073,29.142,29.142v54.899  H87.766c-4.143,0-7.5,3.357-7.5,7.5s3.357,7.5,7.5,7.5H497v276.415c0,4.142,3.357,7.5,7.5,7.5c4.143,0,7.5-3.358,7.5-7.5V44.143  C512,19.802,492.198,0,467.858,0z" fill="#000000" data-original="#000000"/>
<path xmlns="http://www.w3.org/2000/svg" d="M504.5,417.96c-4.143,0-7.5,3.357-7.5,7.5v42.398C497,483.926,483.927,497,467.858,497H44.143  c-16.068,0-29.142-13.073-29.142-29.142V114.043h37.762c4.143,0,7.5-3.357,7.5-7.5s-3.357-7.5-7.5-7.5H15.001V44.143  c0-16.069,13.073-29.142,29.142-29.142h372.919c4.143,0,7.5-3.357,7.5-7.5s-3.357-7.5-7.5-7.5H44.143  C19.803,0,0.001,19.802,0.001,44.143v423.716c0,24.34,19.802,44.143,44.143,44.143h423.715c24.34,0,44.143-19.802,44.143-44.143  v-42.398C512,421.318,508.642,417.96,504.5,417.96z" fill="#000000" data-original="#000000"/>















</g>
</svg>
