<?xml version="1.0" encoding="UTF-8"?>
<svg xmlns="http://www.w3.org/2000/svg" xmlns:xlink="http://www.w3.org/1999/xlink" xmlns:svgjs="http://svgjs.com/svgjs" version="1.1" width="512" height="512" x="0" y="0" viewBox="0 0 512 511" style="enable-background:new 0 0 512 512" xml:space="preserve" class="">
  <g>
    <path xmlns="http://www.w3.org/2000/svg" d="m504.398438 48.371094v294.039062c0 22.234375-18.027344 40.261719-40.269532 40.261719h-416.261718c-22.234376 0-40.261719-18.027344-40.261719-40.261719v-294.039062c0-22.246094 18.027343-40.269532 40.261719-40.269532h416.261718c22.242188 0 40.269532 18.027344 40.269532 40.269532zm0 0" fill="#008ffe" data-original="#1c6693" class=""/>
    <path xmlns="http://www.w3.org/2000/svg" d="m504.398438 48.371094v294.039062c0 22.234375-18.027344 40.261719-40.269532 40.261719h-393.804687c-22.234375 0-40.261719-18.027344-40.261719-40.261719v-294.039062c0-22.246094 18.027344-40.269532 40.261719-40.269532h393.804687c22.242188 0 40.269532 18.027344 40.269532 40.269532zm0 0" fill="#1998fd" data-original="#4283b2" class=""/>
    <path xmlns="http://www.w3.org/2000/svg" d="m96.898438 344.6875c-12.402344 0-22.460938-10.054688-22.460938-22.460938v-253.675781c0-12.40625 10.058594-22.460937 22.460938-22.460937 12.40625 0 22.460937 10.054687 22.460937 22.460937v253.675781c0 12.40625-10.054687 22.460938-22.460937 22.460938zm0 0" fill="#607d8b" data-original="#1c414b" class=""/>
    <path xmlns="http://www.w3.org/2000/svg" d="m154.371094 102.359375c0 5.292969-2.152344 10.078125-5.609375 13.542969-3.464844 3.46875-8.261719 5.609375-13.542969 5.609375h-76.640625c-10.574219 0-19.148437-8.578125-19.148437-19.152344 0-5.292969 2.136718-10.078125 5.605468-13.546875 3.46875-3.464844 8.253906-5.617188 13.542969-5.617188h76.640625c10.574219.003907 19.152344 8.578126 19.152344 19.164063zm0 0" fill="#d8a595" data-original="#f49642" class=""/>
    <path xmlns="http://www.w3.org/2000/svg" d="m154.371094 102.359375c0 5.292969-2.152344 10.078125-5.609375 13.542969-3.464844 3.46875-8.261719 5.609375-13.542969 5.609375h-48.890625c-10.582031 0-19.160156-8.578125-19.160156-19.152344 0-5.292969 2.136719-10.078125 5.605469-13.546875 3.46875-3.464844 8.261718-5.617188 13.554687-5.617188h48.890625c10.574219.003907 19.152344 8.578126 19.152344 19.164063zm0 0" fill="#d8a595" data-original="#f7c359" class=""/>
    <path xmlns="http://www.w3.org/2000/svg" d="m247.683594 46.089844c12.40625 0 22.460937 10.054687 22.460937 22.460937v253.675781c0 12.40625-10.054687 22.460938-22.460937 22.460938-12.402344 0-22.460938-10.054688-22.460938-22.460938v-253.675781c0-12.40625 10.054688-22.460937 22.460938-22.460937zm0 0" fill="#607d8b" data-original="#1c414b" class=""/>
    <path xmlns="http://www.w3.org/2000/svg" d="m190.210938 288.417969c0-5.292969 2.152343-10.078125 5.609374-13.546875 3.464844-3.464844 8.261719-5.605469 13.542969-5.605469h76.640625c10.574219 0 19.148438 8.578125 19.148438 19.152344 0 5.292969-2.136719 10.078125-5.605469 13.542969-3.46875 3.46875-8.253906 5.617187-13.542969 5.617187h-76.640625c-10.574219 0-19.152343-8.574219-19.152343-19.160156zm0 0" fill="#d8a595" data-original="#f49642" class=""/>
    <path xmlns="http://www.w3.org/2000/svg" d="m190.210938 288.417969c0-5.292969 2.152343-10.078125 5.609374-13.546875 3.464844-3.464844 8.261719-5.605469 13.542969-5.605469h48.890625c10.582032 0 19.160156 8.578125 19.160156 19.152344 0 5.292969-2.136718 10.078125-5.605468 13.542969-3.46875 3.46875-8.261719 5.617187-13.554688 5.617187h-48.890625c-10.574219 0-19.152343-8.574219-19.152343-19.160156zm0 0" fill="#d8a595" data-original="#f7c359" class=""/>
    <path xmlns="http://www.w3.org/2000/svg" d="m398.46875 344.6875c-12.40625 0-22.460938-10.054688-22.460938-22.460938v-253.675781c0-12.40625 10.054688-22.460937 22.460938-22.460937s22.460938 10.054687 22.460938 22.460937v253.675781c0 12.40625-10.054688 22.460938-22.460938 22.460938zm0 0" fill="#607d8b" data-original="#1c414b" class=""/>
    <path xmlns="http://www.w3.org/2000/svg" d="m455.941406 192.53125c0 5.292969-2.148437 10.078125-5.609375 13.546875-3.464843 3.46875-8.261719 5.605469-13.542969 5.605469h-76.636718c-10.574219 0-19.152344-8.578125-19.152344-19.152344 0-5.292969 2.136719-10.078125 5.605469-13.542969 3.46875-3.46875 8.253906-5.617187 13.546875-5.617187h76.636718c10.574219 0 19.152344 8.578125 19.152344 19.160156zm0 0" fill="#d8a595" data-original="#f49642" class=""/>
    <path xmlns="http://www.w3.org/2000/svg" d="m455.941406 192.53125c0 5.292969-2.148437 10.078125-5.609375 13.546875-3.464843 3.46875-8.261719 5.605469-13.542969 5.605469h-48.890624c-10.582032 0-19.160157-8.578125-19.160157-19.152344 0-5.292969 2.140625-10.078125 5.605469-13.542969 3.46875-3.46875 8.265625-5.617187 13.554688-5.617187h48.890624c10.574219 0 19.152344 8.578125 19.152344 19.160156zm0 0" fill="#d8a595" data-original="#f7c359" class=""/>
    <path xmlns="http://www.w3.org/2000/svg" d="m172.289062 84.519531c-6.863281 0-10.148437-8.753906-5.046874-13.285156 5.199218-4.617187 13.570312-.054687 12.570312 6.78125-.542969 3.683594-3.789062 6.503906-7.523438 6.503906zm0 0" fill="#000000" data-original="#000000" class=""/>
    <path xmlns="http://www.w3.org/2000/svg" d="m172.289062 118.367188c-6.863281 0-10.148437-8.75-5.046874-13.285157 5.199218-4.617187 13.570312-.054687 12.570312 6.785157-.542969 3.679687-3.789062 6.5-7.523438 6.5zm0 0" fill="#000000" data-original="#000000" class=""/>
    <path xmlns="http://www.w3.org/2000/svg" d="m172.289062 152.214844c-6.863281 0-10.148437-8.75-5.046874-13.285156 5.199218-4.617188 13.570312-.054688 12.570312 6.785156-.542969 3.683594-3.789062 6.5-7.523438 6.5zm0 0" fill="#000000" data-original="#000000" class=""/>
    <path xmlns="http://www.w3.org/2000/svg" d="m172.289062 186.066406c-6.863281 0-10.152343-8.753906-5.046874-13.285156 5.199218-4.617188 13.570312-.054688 12.570312 6.78125-.542969 3.683594-3.789062 6.503906-7.523438 6.503906zm0 0" fill="#000000" data-original="#000000" class=""/>
    <path xmlns="http://www.w3.org/2000/svg" d="m172.289062 219.914062c-6.863281 0-10.152343-8.753906-5.046874-13.285156 5.199218-4.617187 13.570312-.054687 12.570312 6.78125-.542969 3.683594-3.789062 6.503906-7.523438 6.503906zm0 0" fill="#000000" data-original="#000000" class=""/>
    <path xmlns="http://www.w3.org/2000/svg" d="m172.289062 253.761719c-6.863281 0-10.152343-8.75-5.046874-13.285157 5.199218-4.617187 13.570312-.054687 12.570312 6.78125-.542969 3.683594-3.789062 6.503907-7.523438 6.503907zm0 0" fill="#000000" data-original="#000000" class=""/>
    <path xmlns="http://www.w3.org/2000/svg" d="m172.289062 287.609375c-6.859374 0-10.152343-8.75-5.046874-13.285156 5.199218-4.617188 13.570312-.050781 12.570312 6.785156-.542969 3.683594-3.789062 6.5-7.523438 6.5zm0 0" fill="#000000" data-original="#000000" class=""/>
    <path xmlns="http://www.w3.org/2000/svg" d="m172.289062 321.460938c-6.859374 0-10.152343-8.753907-5.046874-13.285157 5.199218-4.617187 13.570312-.054687 12.570312 6.78125-.542969 3.683594-3.789062 6.503907-7.523438 6.503907zm0 0" fill="#000000" data-original="#000000" class=""/>
    <path xmlns="http://www.w3.org/2000/svg" d="m323.070312 84.519531c-3.183593 0-6.070312-2.054687-7.148437-5.039062-1.09375-3.023438-.085937-6.550781 2.449219-8.535157 5.378906-4.207031 13.34375.53125 12.191406 7.273438-.613281 3.605469-3.84375 6.300781-7.492188 6.300781zm0 0" fill="#000000" data-original="#000000" class=""/>
    <path xmlns="http://www.w3.org/2000/svg" d="m323.070312 118.367188c-3.191406 0-6.085937-2.0625-7.15625-5.0625-1.078124-3.019532-.070312-6.53125 2.457032-8.507813 5.371094-4.203125 13.324218.511719 12.199218 7.246094-.605468 3.613281-3.84375 6.324219-7.5 6.324219zm0 0" fill="#000000" data-original="#000000" class=""/>
    <path xmlns="http://www.w3.org/2000/svg" d="m323.070312 152.214844c-3.199218 0-6.101562-2.074219-7.167968-5.089844-1.0625-3.011719-.050782-6.511719 2.46875-8.480469 5.363281-4.195312 13.300781.496094 12.203125 7.21875-.59375 3.628907-3.835938 6.351563-7.503907 6.351563zm0 0" fill="#000000" data-original="#000000" class=""/>
    <path xmlns="http://www.w3.org/2000/svg" d="m323.070312 186.066406c-3.210937 0-6.117187-2.089844-7.175781-5.117187-1.050781-3.007813-.035156-6.492188 2.476563-8.457031 5.355468-4.1875 13.277344.484374 12.207031 7.195312-.582031 3.640625-3.832031 6.378906-7.507813 6.378906zm0 0" fill="#000000" data-original="#000000" class=""/>
    <path xmlns="http://www.w3.org/2000/svg" d="m323.070312 219.914062c-3.21875 0-6.132812-2.101562-7.183593-5.140624-1.035157-3.003907-.019531-6.472657 2.484375-8.433594 5.34375-4.179688 13.257812.46875 12.210937 7.171875-.570312 3.648437-3.828125 6.402343-7.511719 6.402343zm0 0" fill="#000000" data-original="#000000" class=""/>
    <path xmlns="http://www.w3.org/2000/svg" d="m323.070312 253.761719c-3.230468 0-6.148437-2.113281-7.191406-5.164063-1.023437-2.996094-.003906-6.453125 2.492188-8.40625 5.335937-4.175781 13.238281.449219 12.214844 7.140625-.558594 3.664063-3.820313 6.429688-7.515626 6.429688zm0 0" fill="#000000" data-original="#000000" class=""/>
    <path xmlns="http://www.w3.org/2000/svg" d="m323.070312 287.609375c-3.238281 0-6.164062-2.125-7.199218-5.191406-1.007813-2.988281.007812-6.433594 2.5-8.378907 5.328125-4.167968 13.214844.433594 12.21875 7.113282-.546875 3.679687-3.816406 6.457031-7.519532 6.457031zm0 0" fill="#000000" data-original="#000000" class=""/>
    <path xmlns="http://www.w3.org/2000/svg" d="m323.070312 321.460938c-3.25 0-6.179687-2.140626-7.207031-5.21875-.996093-2.984376.023438-6.414063 2.507813-8.355469 5.316406-4.160157 13.191406.417969 12.222656 7.089843-.535156 3.6875-3.808594 6.484376-7.523438 6.484376zm0 0" fill="#000000" data-original="#000000" class=""/>
    <path xmlns="http://www.w3.org/2000/svg" d="m472.574219 84.519531c-3.449219 0-6.527344-2.410156-7.371094-5.75-.75-2.96875.421875-6.210937 2.90625-8 5.492187-3.953125 13.242187.988281 11.917969 7.636719-.699219 3.511719-3.871094 6.113281-7.453125 6.113281zm0 0" fill="#000000" data-original="#000000" class=""/>
    <path xmlns="http://www.w3.org/2000/svg" d="m472.574219 118.367188c-3.429688 0-6.5-2.386719-7.359375-5.703126-.769532-2.980468.398437-6.246093 2.898437-8.046874 5.507813-3.964844 13.285157 1.027343 11.902344 7.691406-.722656 3.488281-3.882813 6.058594-7.441406 6.058594zm0 0" fill="#000000" data-original="#000000" class=""/>
    <path xmlns="http://www.w3.org/2000/svg" d="m472.574219 152.214844c-3.414063 0-6.472657-2.363282-7.34375-5.65625-.796875-2.992188.367187-6.285156 2.878906-8.09375 5.53125-3.976563 13.335937 1.0625 11.894531 7.746094-.742187 3.460937-3.886718 6.003906-7.429687 6.003906zm0 0" fill="#000000" data-original="#000000" class=""/>
    <path xmlns="http://www.w3.org/2000/svg" d="m472.574219 186.066406c-3.394531 0-6.441407-2.34375-7.332031-5.613281-.820313-3.003906.339843-6.320313 2.871093-8.140625 5.546875-3.988281 13.378907 1.097656 11.878907 7.800781-.765626 3.433594-3.894532 5.953125-7.417969 5.953125zm0 0" fill="#000000" data-original="#000000" class=""/>
    <path xmlns="http://www.w3.org/2000/svg" d="m472.574219 219.914062c-3.378907 0-6.414063-2.316406-7.320313-5.566406-.839844-3.011718.3125-6.355468 2.855469-8.183594 5.566406-4.003906 13.425781 1.132813 11.871094 7.855469-.785157 3.40625-3.90625 5.894531-7.40625 5.894531zm0 0" fill="#000000" data-original="#000000" class=""/>
    <path xmlns="http://www.w3.org/2000/svg" d="m472.574219 253.761719c-3.359375 0-6.386719-2.292969-7.308594-5.519531-.863281-3.023438.289063-6.390626 2.847656-8.230469 5.585938-4.015625 13.46875 1.167969 11.855469 7.910156-.808594 3.378906-3.914062 5.839844-7.394531 5.839844zm0 0" fill="#000000" data-original="#000000" class=""/>
    <path xmlns="http://www.w3.org/2000/svg" d="m472.574219 287.609375c-3.34375 0-6.355469-2.269531-7.296875-5.476563-.886719-3.03125.261718-6.425781 2.832031-8.273437 5.605469-4.027344 13.519531 1.203125 11.84375 7.964844-.828125 3.355469-3.917969 5.785156-7.378906 5.785156zm0 0" fill="#000000" data-original="#000000" class=""/>
    <path xmlns="http://www.w3.org/2000/svg" d="m472.574219 321.460938c-3.328125 0-6.328125-2.25-7.28125-5.433594-.910157-3.042969.234375-6.460938 2.820312-8.320313 5.621094-4.039062 13.5625 1.238281 11.832031 8.019531-.851562 3.328126-3.929687 5.734376-7.371093 5.734376zm0 0" fill="#000000" data-original="#000000" class=""/>
    <path xmlns="http://www.w3.org/2000/svg" d="m464.132812.5h-13.878906c-4.199218 0-7.601562 3.40625-7.601562 7.605469s3.402344 7.601562 7.601562 7.601562h13.878906c18.007813 0 32.660157 14.652344 32.660157 32.660157v294.042968c0 18.007813-14.652344 32.65625-32.660157 32.65625h-416.265624c-18.007813.003906-32.660157-14.648437-32.660157-32.65625v-294.042968c0-18.007813 14.652344-32.660157 32.660157-32.660157h371.972656c4.199218 0 7.601562-3.402343 7.601562-7.601562s-3.402344-7.605469-7.601562-7.605469h-371.972656c-26.394532 0-47.867188 21.472656-47.867188 47.867188v294.042968c0 26.390625 21.472656 47.867188 47.867188 47.867188h416.265624c26.394532 0 47.867188-21.476563 47.867188-47.867188v-294.042968c0-26.394532-21.472656-47.867188-47.867188-47.867188zm0 0" fill="#000000" data-original="#000000" class=""/>
    <path xmlns="http://www.w3.org/2000/svg" d="m74.441406 262.105469c-4.199218 0-7.605468 3.402343-7.605468 7.601562v52.515625c0 16.582032 13.484374 30.074219 30.0625 30.074219 16.574218 0 30.058593-13.492187 30.058593-30.074219v-193.101562h8.257813c14.757812 0 26.761718-12.007813 26.761718-26.761719 0-14.757813-12.003906-26.765625-26.761718-26.765625h-8.257813v-7.046875c0-8.019531-3.121093-15.566406-8.796875-21.253906-5.679687-5.679688-13.230468-8.808594-21.261718-8.808594-16.578126 0-30.0625 13.484375-30.0625 30.0625v7.046875h-8.253907c-14.753906 0-26.761719 12.007812-26.761719 26.765625 0 14.753906 12.007813 26.761719 26.761719 26.761719h8.253907v110.167968c0 4.199219 3.40625 7.605469 7.605468 7.605469 4.199219 0 7.601563-3.40625 7.601563-7.605469v-110.167968h29.707031v193.101562c0 8.195313-6.664062 14.863282-14.851562 14.863282-8.191407 0-14.855469-6.667969-14.855469-14.863282v-52.515625c0-4.199219-3.402344-7.601562-7.601563-7.601562zm7.601563-193.558594c0-8.191406 6.664062-14.851563 14.855469-14.851563 3.96875 0 7.703124 1.542969 10.503906 4.34375 2.804687 2.8125 4.347656 6.542969 4.347656 10.507813v7.050781h-29.707031zm-35.015625 33.8125c0-6.371094 5.183594-11.554687 11.554687-11.554687h76.632813c6.371094 0 11.554687 5.183593 11.554687 11.554687s-5.183593 11.550781-11.554687 11.550781h-76.632813c-6.371093 0-11.554687-5.179687-11.554687-11.550781zm0 0" fill="#000000" data-original="#000000" class=""/>
    <path xmlns="http://www.w3.org/2000/svg" d="m226.425781 343.488281c5.679688 5.679688 13.226563 8.808594 21.253907 8.808594 16.582031 0 30.070312-13.492187 30.070312-30.070313v-7.046874h8.25c14.757812 0 26.761719-12.003907 26.761719-26.761719 0-14.753907-12.003907-26.761719-26.761719-26.761719h-8.25v-193.109375c0-16.574219-13.488281-30.058594-30.070312-30.058594-16.574219 0-30.058594 13.484375-30.058594 30.058594v193.109375h-8.25c-14.757813 0-26.761719 12.007812-26.761719 26.761719 0 14.757812 12.003906 26.761719 26.761719 26.761719h8.25v7.046874c-.003906 8.03125 3.125 15.585938 8.804687 21.261719zm36.117188-21.261719c0 8.195313-6.667969 14.863282-14.863281 14.863282-3.964844 0-7.695313-1.546875-10.5-4.355469-2.808594-2.804687-4.355469-6.539063-4.355469-10.507813v-7.046874h29.71875zm-29.71875-253.679687c0-8.191406 6.664062-14.851563 14.855469-14.851563 8.195312 0 14.863281 6.660157 14.863281 14.851563v193.109375h-29.71875zm-35.007813 219.871094c0-6.371094 5.179688-11.554688 11.550782-11.554688h76.632812c6.371094 0 11.554688 5.183594 11.554688 11.554688 0 6.371093-5.183594 11.554687-11.554688 11.554687h-76.632812c-6.371094 0-11.550782-5.183594-11.550782-11.554687zm0 0" fill="#000000" data-original="#000000" class=""/>
    <path xmlns="http://www.w3.org/2000/svg" d="m419.722656 47.292969c-5.679687-5.679688-13.226562-8.808594-21.25-8.808594-16.582031 0-30.074218 13.484375-30.074218 30.0625v97.222656h-8.246094c-14.757813 0-26.761719 12.003907-26.761719 26.761719s12.003906 26.761719 26.761719 26.761719h8.246094v102.929687c0 16.582032 13.492187 30.074219 30.074218 30.074219 16.574219 0 30.058594-13.492187 30.058594-30.074219v-102.929687h8.253906c14.757813 0 26.761719-12.003907 26.761719-26.761719s-12.003906-26.761719-26.761719-26.761719h-8.253906v-97.222656c0-8.027344-3.128906-15.574219-8.808594-21.253906zm-36.113281 21.253906c0-8.191406 6.667969-14.851563 14.863281-14.851563 3.960938 0 7.691406 1.542969 10.496094 4.351563 2.808594 2.808594 4.355469 6.535156 4.355469 10.5v97.222656h-29.71875v-97.222656zm29.714844 253.679687c0 8.195313-6.664063 14.863282-14.851563 14.863282-8.195312 0-14.863281-6.667969-14.863281-14.863282v-102.933593h29.714844zm35.015625-129.695312c0 6.371094-5.183594 11.554688-11.554688 11.554688h-76.632812c-6.371094 0-11.550782-5.183594-11.550782-11.554688s5.179688-11.554688 11.550782-11.554688h76.632812c6.371094 0 11.554688 5.183594 11.554688 11.554688zm0 0" fill="#000000" data-original="#000000" class=""/>
  </g>
</svg>
