<?xml version="1.0" encoding="UTF-8"?>
<svg xmlns="http://www.w3.org/2000/svg" xmlns:xlink="http://www.w3.org/1999/xlink" xmlns:svgjs="http://svgjs.com/svgjs" version="1.1" width="512" height="512" x="0" y="0" viewBox="0 0 512.002 512.002" style="enable-background:new 0 0 512 512" xml:space="preserve" class="">
  <g>
    <path xmlns="http://www.w3.org/2000/svg" d="m451.435 189.322c1.694-8.326-1.624-17.488-8.256-22.799-4.122-3.301-9.415-5.027-14.694-5.027-3.214 0-6.423.64-9.357 1.954-1.039.465-2.042 1.007-3.013 1.531-1.516.818-2.948 1.591-4.493 2.092-7.072 2.29-13.87-1.476-21.065-5.465-3.219-1.785-6.549-3.63-9.923-4.899-6.121-2.301-12.71-2.701-19.083-3.087-4.696-.284-9.553-.579-14.135-1.639-6.807-1.576-13.348-6.3-16.275-11.755-1.852-3.45-2.177-7.019-.94-10.322.835-2.23 2.3-4.137 3.852-6.156 1.366-1.777 2.778-3.615 3.752-5.721 2.143-4.634 1.853-9.747 1.574-14.692-.183-3.238-.373-6.586.139-9.718.821-5.025 3.48-9.719 6.051-14.259 3.14-5.546 6.387-11.281 6.454-17.796.035-3.39-.816-6.673-1.639-9.848-.393-1.519-.8-3.089-1.097-4.631-1.225-6.367-.613-13.074 1.767-19.463l.574-.891c-23.765-9.877-48.75-15.897-74.005-18.08-2.486 7.074-9.536 14.521-12.422 21.37-1.376 3.266-1.721 6.878-2.934 10.208s-3.699 6.595-7.207 7.096c-1.075.154-2.211.042-3.209.47-2.734 1.171-2.487 5.072-3.743 7.768-1.32 2.834-4.551 4.382-7.672 4.578s-6.191-.723-9.183-1.631c-3.862-1.173-8.01-2.546-10.334-5.846-1.274-1.809-1.852-4.018-2.987-5.917-2.011-3.365-5.548-5.451-8.712-7.766-7.118-5.208-12.845-14.394-16.632-23.017-14.695 3.869-29.102 9.111-43.024 15.713l.577.864c.308 3.289 1.923 6.298 4.535 8.388l18.22 14.576c2.415 1.932 3.8 4.814 3.8 7.907v20.706c0 6.742 5.485 12.227 12.228 12.227h8.515c5.583 0 10.125 4.542 10.125 10.125v9.804c0 3.193-1.532 6.234-4.098 8.136l-49.989 37.03c-1.731 1.282-3.871 1.989-6.027 1.989h-30.904c-6.742 0-12.227 5.485-12.227 12.227v20.384c0 3.266 1.272 6.337 3.581 8.646l21.66 21.66c2.309 2.31 5.38 3.581 8.646 3.581h30.495c5.583 0 10.125 4.542 10.125 10.125v9.047c0 6.742 5.485 12.228 12.227 12.228h21.288c5.583 0 10.125 4.542 10.125 10.125 0 6.742 5.485 12.227 12.228 12.227h27.674c5.583 0 10.125 4.542 10.125 10.125v29.257c0 3.072-1.37 5.941-3.759 7.873l-41.728 33.737c-2.885 2.333-4.54 5.799-4.54 9.509v14.297c0 2.792-1.169 5.486-3.207 7.394l-15.67 14.662c-2.462 2.303-3.874 5.557-3.874 8.929v31.873c0 5.583-4.542 10.125-10.124 10.125h-16.631c-5.583 0-10.124-4.542-10.124-10.125v-20.334c0-1.826-.419-3.66-1.211-5.304l-11.624-24.143c-.656-1.361-1.002-2.88-1.002-4.392v-46.009c0-3.922-1.9-7.631-5.083-9.923l-43.936-31.627c-2.636-1.897-4.209-4.969-4.209-8.217v-31.821c0-1.719.442-3.422 1.278-4.924l2.319-4.164c2.654-4.77 1.801-10.786-2.075-14.629l-38.575-38.252c-1.903-1.888-2.995-4.508-2.995-7.189v-24.357c0-3.417-1.444-6.701-3.961-9.01l-18.996-17.428-.842-.67c-44.206 92.396-28.053 206.449 48.494 282.996 97.048 97.048 254.394 97.048 351.442 0 6.507-6.507 12.563-13.294 18.197-20.307h-1.33c-7.77-5.589-13.664-10.613-18.497-15.762-12.109-12.9-20.174-29.647-22.709-47.156-.443-3.061-.731-6.214-1.008-9.263-.484-5.31-.985-10.801-2.326-16.09-1.838-7.253-5.242-14.092-8.533-20.706-4.398-8.837-8.552-17.185-9.421-26.569-1.242-13.421 5.12-27.044 16.211-34.705 6.507-4.495 14.34-6.874 21.916-9.174 7.145-2.17 14.534-4.414 20.979-8.436 1.635-1.021 3.419-2.333 4.245-4.321 1.162-2.797.071-5.55-.984-8.213-.447-1.128-.869-2.193-1.125-3.253-.953-3.941.452-7.873 1.941-12.037.766-2.15 1.56-4.372 2.019-6.624z" fill="#199afe" data-original="#23a8fe" class=""/>
    <path xmlns="http://www.w3.org/2000/svg" d="m172.952 461.461c-5.583 0-10.124-4.542-10.124-10.125v-1.517c-6.869-5.542-13.512-11.502-19.894-17.883-57.413-57.412-80.852-135.927-70.335-210.576l-13.881-13.764c-1.903-1.888-2.995-4.508-2.995-7.189v-24.357c0-3.417-1.444-6.701-3.961-9.01l-18.996-17.428-.842-.67c-44.206 92.396-28.053 206.449 48.494 282.996 56.491 56.491 133.412 80.086 206.979 70.811-38.336-4.833-75.758-18.597-108.907-41.286h-5.538z" fill="#008ffe" data-original="#0193fa" class=""/>
    <path xmlns="http://www.w3.org/2000/svg" d="m192.59 15.986c-14.695 3.872-29.109 9.09-43.033 15.694l.578.864c.308 3.289 1.923 6.298 4.535 8.388l17.837 14.27c10.39-7.57 21.241-14.215 32.43-19.973-5.146-5.274-9.352-12.43-12.347-19.243z" fill="#008ffe" data-original="#0193fa" class=""/>
    <path xmlns="http://www.w3.org/2000/svg" d="m262.361 282.63h-27.674c-6.172 0-11.176-5.004-11.176-11.176s-5.004-11.176-11.176-11.176h-21.288c-6.172 0-11.176-5.004-11.176-11.176v-9.047c0-6.172-5.004-11.176-11.176-11.176h-30.496c-2.964 0-5.807-1.178-7.903-3.273l-21.66-21.66c-2.096-2.096-3.273-4.939-3.273-7.903v-20.384c0-6.172 5.004-11.176 11.176-11.176h30.904c2.395 0 4.728-.769 6.652-2.195l49.989-37.029c2.846-2.108 4.524-5.44 4.524-8.981v-9.804c0-6.172-5.004-11.176-11.176-11.176h-8.515c-6.172 0-11.176-5.004-11.176-11.176v-20.708c0-3.395-1.543-6.606-4.195-8.727l-18.221-14.577c-2.651-2.121-4.195-5.332-4.195-8.727v-.47c-25.6 11.929-49.587 28.452-70.715 49.58-20.756 20.756-37.057 44.275-48.935 69.367l19.568 17.952c2.307 2.117 3.621 5.104 3.621 8.236v24.357c0 2.98 1.19 5.837 3.306 7.936l38.574 38.253c3.558 3.528 4.332 8.993 1.896 13.371l-2.318 4.164c-.925 1.662-1.411 3.533-1.411 5.435v31.821c0 3.595 1.729 6.97 4.646 9.07l43.928 31.628c2.917 2.1 4.646 5.475 4.646 9.07v46.009c0 1.678.378 3.336 1.107 4.848l11.624 24.143c.728 1.513 1.107 3.17 1.107 4.849v20.334c0 6.172 5.004 11.176 11.176 11.176h16.631c6.172 0 11.176-5.004 11.176-11.176v-31.873c0-3.093 1.282-6.048 3.54-8.161l15.671-14.663c2.259-2.113 3.54-5.068 3.54-8.161v-14.296c0-3.375 1.525-6.569 4.15-8.691l41.728-33.737c2.624-2.122 4.149-5.316 4.149-8.691v-29.257c.002-6.172-5.001-11.176-11.174-11.176z" fill="#43cb8e" data-original="#43cb8e" class=""/>
    <path xmlns="http://www.w3.org/2000/svg" d="m151.132 31.384v-.457c-53.855 25.083-96.548 69.177-119.649 118.934l19.568 17.952c2.307 2.117 3.62 5.104 3.62 8.236v24.357c0 2.98 1.191 5.837 3.307 7.936l14.448 14.327c7.046-52.003 30.537-102.204 70.508-142.175 9.599-9.599 19.794-18.235 30.457-25.932l-18.064-14.451c-2.651-2.121-4.195-5.332-4.195-8.727z" fill="#00ba66" data-original="#00ba66" class=""/>
    <path xmlns="http://www.w3.org/2000/svg" d="m504.646 256.215c0-63.599-24.262-127.197-72.786-175.721-24.043-24.043-51.79-42.121-81.401-54.251-2.678 6.641-3.562 14.005-2.207 21.043.918 4.767 2.766 9.415 2.717 14.269-.117 11.523-10.632 20.523-12.491 31.896-1.312 8.025 1.783 16.757-1.63 24.138-1.99 4.304-5.971 7.509-7.634 11.95-3.918 10.463 7.079 20.95 17.963 23.469 10.885 2.52 22.628.754 33.085 4.686 10.69 4.02 20.816 13.897 31.682 10.38 2.682-.868 5.039-2.511 7.612-3.664 7.409-3.318 16.629-2.141 22.965 2.933 6.337 5.074 9.501 13.814 7.883 21.768-1.314 6.459-5.502 12.71-3.953 19.117.885 3.66 3.605 7.338 2.16 10.815-.705 1.696-2.273 2.86-3.831 3.832-13.174 8.224-30.157 8.81-42.935 17.637-11.317 7.818-17.928 21.97-16.66 35.667 1.566 16.917 13.808 30.968 17.982 47.436 2.087 8.234 2.095 16.838 3.312 25.245 2.571 17.749 10.71 34.65 22.983 47.725 5.831 6.213 12.504 11.519 19.456 16.473 37.144-45.549 55.695-101.197 55.694-156.845h.034z" fill="#43cb8e" data-original="#43cb8e" class=""/>
    <path xmlns="http://www.w3.org/2000/svg" d="m411.945 168.075c2.682-.868 5.039-2.511 7.612-3.664 7.409-3.318 16.628-2.141 22.965 2.933s9.501 13.814 7.883 21.768c-1.314 6.459-5.502 12.71-3.953 19.117.885 3.66 3.605 7.338 2.16 10.815-.042.101-.097.195-.145.292 11.515-5.241 24.893-6.853 35.708-13.604 1.558-.973 3.126-2.136 3.831-3.832 1.445-3.478-1.275-7.155-2.16-10.815-1.549-6.407 2.639-12.658 3.953-19.117.022-.11.034-.221.055-.332-2.751-7.618-5.886-15.126-9.406-22.499-6.238-4.155-14.641-4.942-21.497-1.871-2.573 1.152-4.93 2.795-7.612 3.664-10.866 3.517-20.992-6.36-31.682-10.38-10.458-3.932-22.2-2.166-33.085-4.686-10.884-2.52-21.881-13.006-17.963-23.469 1.663-4.441 5.644-7.646 7.634-11.95 3.412-7.381.318-16.113 1.629-24.138 1.722-10.535 10.866-19.036 12.297-29.391-12.719-8.16-26.011-15.061-39.711-20.673-2.678 6.641-3.562 14.005-2.207 21.042.917 4.767 2.767 9.415 2.717 14.27-.117 11.523-10.632 20.523-12.491 31.896-1.311 8.025 1.783 16.757-1.63 24.138-1.99 4.304-5.971 7.509-7.634 11.95-3.918 10.463 7.079 20.95 17.963 23.469 10.885 2.52 22.628.754 33.085 4.686 10.691 4.02 20.818 13.898 31.684 10.381z" fill="#00ba66" data-original="#00ba66" class=""/>
    <path xmlns="http://www.w3.org/2000/svg" d="m468.858 379.443c-12.274-13.076-20.413-29.977-22.984-47.725-1.217-8.407-1.225-17.011-3.312-25.245-4.175-16.469-16.416-30.519-17.982-47.436-1.099-11.876 3.731-24.088 12.41-32.222-11.628 4.799-24.772 6.534-35.145 13.7-11.317 7.818-17.928 21.97-16.66 35.667 1.566 16.917 13.808 30.968 17.982 47.436 2.087 8.234 2.095 16.838 3.312 25.245 2.571 17.749 10.71 34.65 22.984 47.725 5.831 6.213 12.504 11.519 19.456 16.473 8.213-10.072 15.514-20.639 21.909-31.59-.665-.668-1.324-1.34-1.97-2.028z" fill="#00ba66" data-original="#00ba66" class=""/>
    <path xmlns="http://www.w3.org/2000/svg" d="m262.263 41.283c1.213-3.33 1.558-6.942 2.934-10.208 2.937-6.97 10.195-14.559 12.559-21.743.071-.217.125-.437.186-.655-7.253-.635-14.528-.969-21.804-.969v.032c-21.519 0-43.035 2.784-63.97 8.334 3.777 8.888 9.667 18.564 17.046 23.962 3.164 2.315 6.701 4.4 8.712 7.766 1.135 1.899 1.713 4.108 2.987 5.917 2.324 3.3 6.472 4.673 10.334 5.846 2.992.909 6.063 1.827 9.183 1.631 3.121-.196 6.352-1.744 7.672-4.578 1.256-2.697 1.009-6.597 3.743-7.769.998-.428 2.134-.316 3.209-.47 3.51-.501 5.996-3.766 7.209-7.096z" fill="#43cb8e" data-original="#43cb8e" class=""/>
    <path xmlns="http://www.w3.org/2000/svg" d="m277.942 8.679c-7.372-.645-14.679-.971-21.803-.971v.032c-20.9 0-42.806 2.705-63.97 8.334 2.886 6.792 7.009 14.037 12.084 19.488 23.087-11.968 47.657-20.074 72.756-24.314.612-1.404.745-1.895.933-2.569z" fill="#00ba66" data-original="#00ba66" class=""/>
    <path xmlns="http://www.w3.org/2000/svg" d="m256.021 512.002c134.394 0 246.423-103.858 255.415-239.252 9.518-148.555-106.881-269.557-249.646-272.679-141.379-3.319-261.769 110.314-261.769 255.931 0 141.491 114.496 256 256 256zm89.738-417.55c.637-3.889 2.9-7.888 5.298-12.122 14.966-26.434 1.906-29.101 4.239-45.998 140.789 63.528 186.701 242.92 92.122 366.159-39.09-30.203-32.018-60.865-37.101-80.932-4.415-17.413-16.394-31.258-17.785-46.283-1.015-10.968 4.393-22.544 13.455-28.804 5.678-3.922 12.694-6.053 20.123-8.309 7.547-2.292 15.351-4.662 22.521-9.137 13.158-8.217 5.817-19.343 4.988-22.772-.501-2.067.54-4.979 1.745-8.35.845-2.362 1.717-4.804 2.268-7.507 4.707-23.138-19.349-44.992-44.705-31.298-1.249.674-2.429 1.312-3.413 1.63-4.12 1.329-8.773-.99-15.953-4.97-11.191-6.204-15.317-7.787-31.741-8.782-4.636-.281-9.014-.546-13.07-1.485-7.012-1.624-14.607-8.262-12.63-13.533 1.076-2.876 5.05-6.313 7.416-11.431 4.384-9.483 1.105-19.232 2.223-26.076zm-83.988-79.375c1.458.036 2.758.085 4.037.135-6.549 9.768-7.822 11.669-9.662 19.465-.332 1.402-.645 2.727-1.047 3.833-.461 1.264-1.086 2.017-1.382 2.251-.103.007-.206.011-.309.018-1.034.063-2.765.168-4.631.968-5.271 2.258-6.5 7.263-7.16 9.952-.107.438-.262 1.065-.373 1.397-.222.148-.746.366-1.398.406-1.826.107-4.212-.617-6.535-1.322-2.034-.618-5.439-1.652-6.38-2.988-.272-.386-.62-1.183-.956-1.954-.458-1.05-.978-2.24-1.726-3.492-5.536-9.262-12.189-6.895-21.335-22.818 19.33-4.346 39.352-6.306 58.857-5.851zm-227.856 147.085 11.953 10.966c.757.695 1.191 1.682 1.191 2.709v24.356c0 4.945 2.014 9.779 5.525 13.261l38.573 38.251c1.165 1.156 1.422 2.964.623 4.399l-2.315 4.162c-1.544 2.771-2.359 5.912-2.359 9.085v31.82c0 5.992 2.903 11.658 7.764 15.156l43.928 31.629c.956.688 1.527 1.802 1.527 2.981v46.008c0 2.79.64 5.591 1.849 8.102l11.625 24.143c.237.494.363 1.045.363 1.594v20.333c0 10.298 8.378 18.676 18.676 18.676h16.631c10.298 0 18.676-8.378 18.676-18.676v-31.872c0-1.014.424-1.992 1.164-2.684l15.67-14.663c3.76-3.518 5.916-8.488 5.916-13.638v-14.296c0-1.115.498-2.157 1.365-2.858l2.894-2.339c3.222-2.604 3.722-7.327 1.117-10.548-2.602-3.22-7.324-3.722-10.547-1.117l-2.894 2.339c-4.408 3.563-6.936 8.856-6.936 14.523v14.296c0 1.014-.424 1.992-1.164 2.685l-15.669 14.662c-3.761 3.517-5.917 8.488-5.917 13.638v31.872c0 2.027-1.649 3.676-3.676 3.676h-16.631c-2.026 0-3.676-1.649-3.676-3.676v-20.333c0-2.789-.64-5.591-1.849-8.102l-11.625-24.144c-.237-.493-.363-1.044-.363-1.593v-46.008c0-5.992-2.903-11.658-7.764-15.156l-43.928-31.629c-.956-.688-1.527-1.802-1.527-2.981v-31.82c0-.625.16-1.242.465-1.789l2.317-4.164c4.054-7.285 2.752-16.473-3.168-22.344l-38.573-38.251c-.691-.686-1.088-1.637-1.088-2.61v-24.356c0-5.218-2.205-10.233-6.05-13.762l-15.444-14.169c22.303-44.454 59.126-82.769 105.905-106.637 1.084 1.683 2.446 3.202 4.058 4.491l18.221 14.577c.877.702 1.38 1.748 1.38 2.87v20.706c0 10.298 8.378 18.676 18.676 18.676h8.515c2.026 0 3.676 1.649 3.676 3.676v9.804c0 1.16-.557 2.264-1.487 2.954l-12.354 9.15c-3.329 2.465-4.028 7.163-1.563 10.491 2.464 3.328 7.161 4.028 10.49 1.563l12.354-9.15c4.733-3.506 7.56-9.117 7.56-15.007v-9.804c0-10.298-8.378-18.676-18.676-18.676h-8.515c-2.027 0-3.676-1.649-3.676-3.676v-20.708c0-5.705-2.556-11.02-7.01-14.583l-17.533-14.027c8.899-3.835 18.028-7.125 27.35-9.854 3.529 6.887 9.083 15.539 16.735 21.138 5.84 4.275 6.126 4.073 7.556 7.355.576 1.32 1.293 2.964 2.441 4.593 3.91 5.554 10.154 7.449 14.285 8.704 2.939.893 6.525 1.981 10.506 1.981.437 0 .88-.013 1.326-.041 6.263-.392 11.628-3.801 14.002-8.897.665-1.429 1.035-2.83 1.323-3.996 5.789-.874 10.675-5.327 13.084-11.936 0-.001 0-.002.001-.003 3.071-8.44-.07-6.58 7.961-18.429 1.92-2.834 3.876-5.733 5.455-8.753 20.184 2.201 39.813 6.902 58.525 13.953-3.545 15.564 2.283 24.193 2.213 30.859-.043 4.309-2.5 8.646-5.344 13.669-2.803 4.951-5.98 10.562-7.048 17.093-1.434 8.773 1.283 17.186-1.036 22.2-.573 1.24-1.64 2.628-2.77 4.098-1.779 2.316-3.797 4.941-5.079 8.369-5.621 15.013 7.979 29.86 23.295 33.405 5.279 1.222 10.498 1.539 15.546 1.844 14.013.848 16.102 1.788 25.376 6.929 12.835 7.114 20.973 10.325 33.766 3.419.872-.471 1.696-.916 2.446-1.252 10.764-4.818 22.813 4.665 20.433 16.361-1.153 5.674-6.068 13.384-3.894 22.374.601 2.485 1.612 4.54 2.163 6.189-11.154 7.552-29.461 8.298-43.74 18.162-13.59 9.388-21.388 26.081-19.865 42.528 1.733 18.727 14.267 33.154 18.18 48.587 4.179 16.478-2.007 54.564 42.142 88.855-46.234 53.042-111.669 82.902-181.898 82.902-133.201 0-241-107.788-241-241 0-32.771 6.51-64.538 18.894-93.84z" fill="#000000" data-original="#000000" class=""/>
    <path xmlns="http://www.w3.org/2000/svg" d="m265.92 293.591v29.257c0 1.115-.497 2.157-1.363 2.858l-11.607 9.384c-3.222 2.604-3.722 7.327-1.117 10.548 1.481 1.833 3.649 2.785 5.837 2.785 1.655 0 3.322-.546 4.71-1.668l11.608-9.385c4.406-3.563 6.933-8.856 6.933-14.522v-29.257c0-10.298-8.378-18.676-18.676-18.676h-27.673c-2.027 0-3.677-1.649-3.677-3.676 0-10.298-8.378-18.676-18.676-18.676h-21.287c-2.026 0-3.676-1.649-3.676-3.676v-9.047c0-10.298-8.378-18.676-18.676-18.676h-30.495c-.968 0-1.915-.393-2.599-1.077l-21.659-21.659c-.685-.685-1.077-1.632-1.077-2.599v-20.384c0-2.027 1.649-3.676 3.676-3.676h30.904c3.975 0 7.923-1.303 11.116-3.668l9.447-6.998c3.329-2.466 4.028-7.163 1.563-10.491-2.464-3.328-7.163-4.027-10.49-1.563l-9.447 6.998c-.629.466-1.406.722-2.188.722h-30.904c-10.298 0-18.676 8.378-18.676 18.676v20.384c0 4.988 1.942 9.678 5.47 13.206l21.659 21.659c3.528 3.527 8.218 5.47 13.206 5.47h30.495c2.026 0 3.676 1.649 3.676 3.676v9.047c0 10.298 8.378 18.676 18.676 18.676h21.287c2.026 0 3.676 1.649 3.676 3.676 0 10.298 8.378 18.676 18.677 18.676h27.673c2.024.001 3.674 1.65 3.674 3.676z" fill="#000000" data-original="#000000" class=""/>
  </g>
</svg>
