<?xml version="1.0" encoding="UTF-8"?>
<svg xmlns="http://www.w3.org/2000/svg" xmlns:xlink="http://www.w3.org/1999/xlink" xmlns:svgjs="http://svgjs.com/svgjs" version="1.1" width="512" height="512" x="0" y="0" viewBox="0 0 512 512" style="enable-background:new 0 0 512 512" xml:space="preserve" class="">
  <g>
    <g xmlns="http://www.w3.org/2000/svg">
      <path d="m294.267 153.715v-144.032c0-1.206-.977-2.183-2.183-2.183h-72.168c-1.206 0-2.183.977-2.183 2.183v144.032c0 1.206-.977 2.183-2.183 2.183h-49.103c-1.945 0-2.919 2.351-1.544 3.727l89.553 89.553c.853.853 2.235.853 3.087 0l89.553-89.553c1.375-1.375.401-3.727-1.544-3.727h-49.102c-1.206 0-2.183-.977-2.183-2.183z" fill="#199afe" data-original="#c8ea73" class=""/>
      <path d="m345.553 155.898h-49.103c-1.206 0-2.183-.978-2.183-2.183v-144.032c0-1.206-.978-2.183-2.183-2.183h-37.817v118.535c0 5.448 4.416 9.864 9.864 9.864 17.231 0 25.86 20.833 13.676 33.016l-51.807 51.806 28.456 28.456c.853.853 2.235.853 3.087 0l89.553-89.553c1.376-1.374.401-3.726-1.543-3.726z" fill="#008ffe" data-original="#aad880" class=""/>
      <path d="m256 307.277h-197.224v194.535c0 1.485 1.204 2.688 2.688 2.688h194.536z" fill="#e2bcaf" data-original="#e2bcaf" class=""/>
      <path d="m256 307.277h-197.224l-32.775-49.24c-2.522-3.789.194-8.859 4.745-8.859h183.528c1.907 0 3.689.954 4.745 2.542z" fill="#d8a595" data-original="#d8a595" class=""/>
      <path d="m256 307.277h197.224v194.535c0 1.485-1.203 2.688-2.688 2.688h-194.536z" fill="#d8a595" data-original="#d8a595" class=""/>
      <path d="m256 307.277h197.224l32.775-49.24c2.522-3.789-.194-8.859-4.745-8.859h-183.529c-1.908 0-3.689.954-4.745 2.542z" fill="#d09080" data-original="#d09080" class=""/>
      <path d="m169.494 442.327h54.267c1.237 0 2.239 1.002 2.239 2.239v27.695c0 1.237-1.002 2.239-2.239 2.239h-54.267c-1.237 0-2.239-1.002-2.239-2.239v-27.695c0-1.237 1.002-2.239 2.239-2.239z" fill="#ffffff" data-original="#ffffff"/>
      <path d="m419.617 474.5h-18.543c-1.992 0-3.607-1.615-3.607-3.607v-18.543c0-1.992 1.615-3.607 3.607-3.607h18.543c1.992 0 3.607 1.615 3.607 3.607v18.543c0 1.992-1.615 3.607-3.607 3.607z" fill="#756e78" data-original="#756e78" class=""/>
      <path d="m368.859 474.5h-18.543c-1.992 0-3.607-1.615-3.607-3.607v-18.543c0-1.992 1.615-3.607 3.607-3.607h18.543c1.992 0 3.607 1.615 3.607 3.607v18.543c0 1.992-1.615 3.607-3.607 3.607z" fill="#756e78" data-original="#756e78" class=""/>
      <path d="m225.233 153.715v-30.397c0-4.143-3.357-7.5-7.5-7.5s-7.5 3.357-7.5 7.5v25.081h-43.786c-3.931 0-7.442 2.347-8.946 5.978s-.68 7.773 2.099 10.553l89.553 89.553c3.771 3.769 9.896 3.798 13.695 0l89.553-89.553c2.778-2.779 3.603-6.922 2.099-10.553s-5.016-5.978-8.946-5.978h-43.786v-138.716c0-5.339-4.344-9.683-9.683-9.683h-72.168c-5.339 0-9.683 4.344-9.683 9.683v78.635c0 4.143 3.357 7.5 7.5 7.5s7.5-3.357 7.5-7.5v-73.318h61.533v138.715c0 5.34 4.344 9.684 9.684 9.684h36.267l-76.718 76.716-76.717-76.717h36.267c5.34 0 9.683-4.343 9.683-9.683z" fill="#000000" data-original="#000000" class=""/>
      <path d="m169.494 482h54.267c5.37 0 9.739-4.369 9.739-9.739v-27.695c0-5.37-4.369-9.738-9.739-9.738h-54.267c-5.37 0-9.739 4.368-9.739 9.738v27.695c0 5.37 4.369 9.739 9.739 9.739zm5.261-32.173h43.745v17.173h-43.745z" fill="#000000" data-original="#000000" class=""/>
      <path d="m401.073 441.242c-6.124 0-11.106 4.982-11.106 11.107v18.543c0 6.125 4.982 11.107 11.106 11.107h18.544c6.124 0 11.106-4.982 11.106-11.107v-18.542c0-6.125-4.982-11.107-11.106-11.107h-18.544zm14.651 25.758h-10.757v-10.758h10.757z" fill="#000000" data-original="#000000" class=""/>
      <path d="m350.316 441.242c-6.125 0-11.107 4.982-11.107 11.107v18.543c0 6.125 4.982 11.107 11.107 11.107h18.543c6.125 0 11.107-4.982 11.107-11.107v-18.542c0-6.125-4.982-11.107-11.107-11.107h-18.543zm14.651 25.758h-10.758v-10.758h10.758z" fill="#000000" data-original="#000000" class=""/>
      <path d="m19.758 262.192 31.519 47.352v192.267c0 5.618 4.57 10.188 10.188 10.188h389.072c5.617 0 10.188-4.57 10.188-10.188v-102.782c0-4.143-3.357-7.5-7.5-7.5s-7.5 3.357-7.5 7.5v97.971h-182.225v-182.223h182.224v49.252c0 4.143 3.357 7.5 7.5 7.5s7.5-3.357 7.5-7.5v-54.485l31.52-47.352c5.832-8.765-.464-20.515-10.99-20.515h-183.529c-4.429 0-8.537 2.201-10.989 5.887l-30.736 46.178-30.735-46.178c-2.453-3.686-6.562-5.887-10.99-5.887h-183.528c-10.527.001-16.822 11.752-10.989 20.515zm278.93-5.514h179.206l-28.688 43.1h-179.205zm-85.377 0 28.688 43.1h-129.039c-4.143 0-7.5 3.357-7.5 7.5s3.357 7.5 7.5 7.5h135.54v182.222h-182.224v-182.223h11.684c4.143 0 7.5-3.357 7.5-7.5s-3.357-7.5-7.5-7.5h-15.167l-28.688-43.1h179.206z" fill="#000000" data-original="#000000" class=""/>
    </g>
  </g>
</svg>
