<?xml version="1.0" encoding="UTF-8"?>
<svg xmlns="http://www.w3.org/2000/svg" xmlns:xlink="http://www.w3.org/1999/xlink" xmlns:svgjs="http://svgjs.com/svgjs" version="1.1" width="512" height="512" x="0" y="0" viewBox="0 0 512 512" style="enable-background:new 0 0 512 512" xml:space="preserve" class="">
  <g>
<circle xmlns="http://www.w3.org/2000/svg" style="" cx="256" cy="256" r="246.34" fill="#008cfa" data-original="#43d490" class=""/>
<path xmlns="http://www.w3.org/2000/svg" style="" d="M367.094,222.189h-77.283v-77.283c0-8.004-6.487-14.491-14.491-14.491h-38.642  c-8.004,0-14.491,6.487-14.491,14.491v77.283h-77.283c-8.004,0-14.491,6.487-14.491,14.491v38.642  c0,8.004,6.487,14.491,14.491,14.491h77.283v77.283c0,8.004,6.487,14.491,14.491,14.491h38.642c8.004,0,14.491-6.487,14.491-14.491  v-77.283h77.283c8.004,0,14.491-6.487,14.491-14.491v-38.642C381.585,228.676,375.098,222.189,367.094,222.189z" fill="#ffffff" data-original="#ffffff" class=""/>
<path xmlns="http://www.w3.org/2000/svg" style="" d="M367.094,217.358h-72.453v-72.453c0-10.67-8.651-19.321-19.321-19.321h-38.642  c-10.67,0-19.321,8.651-19.321,19.321v72.453h-72.453c-10.67,0-19.321,8.651-19.321,19.321v38.642  c0,10.67,8.651,19.321,19.321,19.321h72.453v72.453c0,10.67,8.651,19.321,19.321,19.321h38.642c10.67,0,19.321-8.651,19.321-19.321  v-72.453h72.453c10.67,0,19.321-8.651,19.321-19.321v-38.642C386.415,226.009,377.764,217.358,367.094,217.358z M376.755,275.321  c0,5.337-4.323,9.66-9.66,9.66h-82.113v82.113c0,5.337-4.323,9.66-9.66,9.66h-38.642c-5.337,0-9.66-4.323-9.66-9.66v-82.113h-82.113  c-5.337,0-9.66-4.323-9.66-9.66v-38.642c0-5.337,4.323-9.66,9.66-9.66h82.113v-82.113c0-5.337,4.323-9.66,9.66-9.66h38.642  c5.337,0,9.66,4.323,9.66,9.66v82.113h82.113c5.337,0,9.66,4.323,9.66,9.66V275.321z" fill="#171c1f" data-original="#171c1f" class=""/>
<g xmlns="http://www.w3.org/2000/svg" style="opacity:0.1;">
	<path d="M492.679,251.17c0,130.715-105.965,236.679-236.679,236.679S19.321,381.884,19.321,251.17c0,1.594,0,3.188,0,4.83   c0,130.715,105.965,236.679,236.679,236.679S492.679,386.715,492.679,256C492.679,254.358,492.679,252.764,492.679,251.17z    M294.642,294.642v19.321h72.453c10.67,0,19.321-8.651,19.321-19.321v-19.321c0,10.67-8.651,19.321-19.321,19.321H294.642z    M236.679,386.415c-10.67,0-19.321-8.651-19.321-19.321v19.321c0,10.67,8.651,19.321,19.321,19.321h38.642   c10.67,0,19.321-8.651,19.321-19.321v-19.321c0,10.67-8.651,19.321-19.321,19.321H236.679z M144.906,313.962h72.453v-19.321   h-72.453c-10.67,0-19.321-8.651-19.321-19.321v19.321C125.585,305.311,134.236,313.962,144.906,313.962z M144.906,284.981h82.113   v-9.66h-82.113c-5.337,0-9.66-4.323-9.66-9.66v9.66C135.245,280.658,139.568,284.981,144.906,284.981z M376.755,275.321v-9.66   c0,5.337-4.323,9.66-9.66,9.66h-82.113v9.66h82.113C372.432,284.981,376.755,280.658,376.755,275.321z M227.019,367.094   c0,5.337,4.323,9.66,9.66,9.66h38.642c5.337,0,9.66-4.323,9.66-9.66v-9.66c0,5.337-4.323,9.66-9.66,9.66h-38.642   c-5.337,0-9.66-4.323-9.66-9.66V367.094z" fill="#000000" data-original="#000000" class=""/>
</g>
<path xmlns="http://www.w3.org/2000/svg" style="" d="M256,0C114.616,0,0,114.616,0,256s114.616,256,256,256s256-114.616,256-256S397.384,0,256,0z   M256,492.679C125.285,492.679,19.321,386.715,19.321,256S125.285,19.321,256,19.321S492.679,125.285,492.679,256  S386.715,492.679,256,492.679z" fill="#171c1f" data-original="#171c1f" class=""/>















</g>
</svg>
