<?xml version="1.0" encoding="UTF-8"?>
<svg xmlns="http://www.w3.org/2000/svg" xmlns:xlink="http://www.w3.org/1999/xlink" xmlns:svgjs="http://svgjs.com/svgjs" version="1.1" width="512" height="512" x="0" y="0" viewBox="0 0 512 512" style="enable-background:new 0 0 512 512" xml:space="preserve" class="">
  <g>
<g xmlns="http://www.w3.org/2000/svg">
	<path style="" d="M389.14,38.621c70.636,45.558,112.821,122.87,112.821,206.818   C501.961,381.069,391.62,491.4,256,491.4S10.039,381.069,10.039,245.439c0-83.948,42.185-161.26,112.831-206.818   c13.202-8.513,30.81-4.718,39.324,8.493c8.523,13.202,4.718,30.81-8.493,39.324c-54.322,35.037-86.749,94.479-86.749,159.001   c0,104.247,84.801,189.059,189.048,189.059s189.048-84.811,189.048-189.059c0-64.522-32.427-123.964-86.749-159.001   c-13.212-8.513-17.016-26.122-8.493-39.324C358.32,33.902,375.928,30.098,389.14,38.621z" fill="#008cfa" data-original="#658dbf" class=""/>
	<path style="" d="M284.451,49.052v196.387c0,15.721-12.74,28.461-28.451,28.461c-15.711,0-28.451-12.74-28.451-28.461   V49.052c0-15.711,12.74-28.451,28.451-28.451C271.711,20.6,284.451,33.34,284.451,49.052z" fill="#008cfa" data-original="#658dbf" class=""/>
</g>
<path xmlns="http://www.w3.org/2000/svg" d="M217.51,49.052v196.387c0,21.229,17.266,38.5,38.49,38.5c21.224,0,38.49-17.271,38.49-38.5V49.052  c0-21.224-17.266-38.49-38.49-38.49C234.776,10.561,217.51,27.828,217.51,49.052z M274.412,49.052v196.387  c0,10.158-8.26,18.422-18.412,18.422c-10.153,0-18.412-8.264-18.412-18.422V49.052c0-10.153,8.259-18.412,18.412-18.412  C266.152,30.64,274.412,38.899,274.412,49.052z" fill="#000000" data-original="#000000"/>
<path xmlns="http://www.w3.org/2000/svg" d="M466.864,118.211c-4.86,2.669-6.635,8.773-3.965,13.632c18.987,34.565,29.023,73.845,29.023,113.596  c0,130.088-105.834,235.922-235.922,235.922c-130.088,0-235.922-105.833-235.922-235.922c0-80.516,40.461-154.676,108.233-198.38  c4.133-2.665,9.054-3.562,13.861-2.525c4.806,1.038,8.919,3.885,11.587,8.025c2.666,4.13,3.563,9.05,2.526,13.855  c-1.038,4.806-3.887,8.92-8.026,11.587c-57.198,36.892-91.347,99.486-91.347,167.438c0,109.783,89.31,199.098,199.088,199.098  s199.088-89.315,199.088-199.098c0-67.952-34.148-130.546-91.349-167.44c-4.135-2.664-6.984-6.778-8.022-11.584  c-1.038-4.805-0.142-9.725,2.531-13.862c2.664-4.135,6.779-6.984,11.584-8.022c4.812-1.039,9.732-0.141,13.868,2.528  c13.092,8.444,25.37,18.175,36.496,28.924c3.988,3.852,10.342,3.744,14.195-0.244s3.744-10.343-0.244-14.195  c-12.063-11.656-25.373-22.206-39.563-31.356c-8.643-5.577-18.938-7.453-28.99-5.282c-10.051,2.17-18.654,8.128-24.22,16.764  c-5.578,8.64-7.454,18.933-5.283,28.985c2.17,10.049,8.128,18.653,16.769,24.221c51.439,33.178,82.15,89.463,82.15,150.564  c0,98.712-80.303,179.019-179.009,179.019s-179.01-80.309-179.01-179.02c0-61.101,30.711-117.387,82.148-150.562  c8.645-5.571,14.601-14.173,16.773-24.223c2.171-10.052,0.295-20.345-5.278-28.977c-5.57-8.644-14.173-14.599-24.225-16.77  c-10.045-2.166-20.339-0.294-28.978,5.277C43.899,77.602,0,158.071,0,245.439c0,141.158,114.842,256,256,256s256-114.842,256-256  c0-43.12-10.895-85.744-31.504-123.263C477.827,117.316,471.723,115.541,466.864,118.211z" fill="#000000" data-original="#000000"/>
<path xmlns="http://www.w3.org/2000/svg" d="M451.765,106.416c12.919,0,12.941-20.078,0-20.078C438.845,86.337,438.824,106.416,451.765,106.416z" fill="#000000" data-original="#000000"/>















</g>
</svg>
