<?xml version="1.0" encoding="UTF-8"?>
<svg xmlns="http://www.w3.org/2000/svg" xmlns:xlink="http://www.w3.org/1999/xlink" xmlns:svgjs="http://svgjs.com/svgjs" version="1.1" width="512" height="512" x="0" y="0" viewBox="0 0 60 60" style="enable-background:new 0 0 512 512" xml:space="preserve" class="">
  <g>
    <g xmlns="http://www.w3.org/2000/svg" id="Page-1" fill="none" fill-rule="evenodd">
      <g id="037---SSD-Speed" fill-rule="nonzero">
        <g id="Icons" transform="translate(1 1)">
          <path id="Shape" d="m38 6v16.11c-5.8380661.6506174-10.9909691 4.110071-13.803567 9.2671643-2.8125978 5.1570934-2.930723 11.3624359-.316433 16.6228357h-17.88c-3.3137085 0-6-2.6862915-6-6v-36c0-3.3137085 2.6862915-6 6-6h26c3.3137085 0 6 2.6862915 6 6z" fill="#607d8b" data-original="#607d8b" class=""/>
          <path id="Shape" d="m32 0h-3c3.3137085 0 6 2.6862915 6 6v16.11c-5.8380661.6506174-10.9909691 4.110071-13.803567 9.2671643-2.8125978 5.1570934-2.930723 11.3624359-.316433 16.6228357h3c-2.61429-5.2603998-2.4961648-11.4657423.316433-16.6228357 2.8125979-5.1570933 7.9655009-8.6165469 13.803567-9.2671643v-16.11c0-3.3137085-2.6862915-6-6-6z" fill="#37474f" data-original="#37474f" class=""/>
          <path id="Shape" d="m23.88 48h-14.88v-3c.0032948-1.1032019.89679813-1.9967052 2-2h11.26c.2875024 1.7381604.8335519 3.423498 1.62 5z" fill="#ffdf00" data-original="#ffdf00"/>
          <path id="Shape" d="m22.26 43h-3c.2875024 1.7381604.8335519 3.423498 1.62 5h3c-.7864481-1.576502-1.3324976-3.2618396-1.62-5z" fill="#fec108" data-original="#fec108" class=""/>
          <path id="Shape" d="m37.85 22.13c-7.5442127.9140434-13.7043857 6.4621992-15.4 13.87h-10.45c-6.627417 0-12-5.372583-12-12v-12.0000005l26 .0000005c5.9054323-.0016932 10.9330627 4.2961882 11.85 10.13z" fill="#199afe" data-original="#02a9f4" class=""/>
          <path id="Shape" d="m26 12h-3c5.9054323-.0016932 10.9330627 4.2961882 11.85 10.13-7.5442127.9140434-13.7043857 6.4621992-15.4 13.87h3c1.6956143-7.4078008 7.8557873-12.9559566 15.4-13.87-.9169373-5.8338118-5.9445677-10.1316932-11.85-10.13z" fill="#008ffe" data-original="#0377bc" class=""/>
          <path id="Shape" d="m58 40c-.0042193 8.3548042-5.7568233 15.6084465-13.8910324 17.5156467-8.1342091 1.9072003-16.5115015-2.0334534-20.2289676-9.5156467-.7864481-1.576502-1.3324976-3.2618396-1.62-5-.4019374-2.3228137-.3373484-4.7024098.19-7 1.6956143-7.4078008 7.8557873-12.9559566 15.4-13.87.05-.01.1-.01.15-.02.6642462-.0720843 1.331855-.1088028 2-.11 9.9411255 0 18 8.0588745 18 18z" fill="#199afe" data-original="#02a9f4" class=""/>
          <path id="Shape" d="m40 22c-.526 0-1.039.03-1.551.073 9.3477519.7460205 16.5532914 8.5495264 16.5532914 17.927s-7.2055395 17.1809795-16.5532914 17.927c.511.044 1.028.073 1.551.073 9.9411255 0 18-8.0588745 18-18s-8.0588745-18-18-18z" fill="#008ffe" data-original="#0377bc" class=""/>
          <circle id="Oval" cx="40" cy="40" fill="#ffffff" r="3" data-original="#f44335" class=""/>
        </g>
        <g id="Icons_copy" fill="#000">
          <circle id="Oval" cx="6" cy="6" r="1" fill="#000000" data-original="#000000" class=""/>
          <circle id="Oval" cx="34" cy="6" r="1" fill="#000000" data-original="#000000" class=""/>
          <path id="Shape" d="m41 22c-.338 0-.667.033-1 .051v-15.051c-.0044086-3.86416566-3.1358343-6.99559136-7-7h-26c-3.86416566.00440864-6.99559136 3.13583434-7 7v36c.00440864 3.8641657 3.13583434 6.9955914 7 7h17.273c4.4021655 8.1847008 14.0788815 11.9838733 22.8736293 8.9804085 8.7947477-3.0034647 14.1262215-11.9280338 12.6024319-21.0957191-1.5237896-9.1676852-9.4556022-15.887722-18.7490612-15.8846894zm-6.331 1.108c-.8953009-2.4912893-3.2719236-4.1407514-5.919-4.108h-1.75c-.5522847 0-1 .4477153-1 1v9.381c-1.5285733 1.9667533-2.6534509 4.2161687-3.31 6.619h-9.69c-6.07216255-.0071635-10.9928365-4.9278374-11-11v-11h25c5.0302182.0262368 9.4104725 3.4404035 10.664 8.312-1.0184603.1828087-2.0201675.4490387-2.995.796zm-1.848.769c-1.7675777.84688-3.3937473 1.9616882-4.821 3.305v-6.182h.75c1.8409399-.0370598 3.4913594 1.1293015 4.071 2.877zm-25.821-21.877h26c2.7600532.00330612 4.9966939 2.23994685 5 5v11.12c-2.3796985-3.7859504-6.5283431-6.0941054-11-6.12h-25v-5c.00330612-2.76005315 2.23994685-4.99669388 5-5zm-5 41v-11.1c2.37212359 3.791331 6.52773621 6.0958071 11 6.1h9.261c-.1666532.9914664-.2539301 1.9946498-.261 3 .0007594.6680766.0364749 1.3356559.107 2h-10.107c-1.6568542 0-3 1.3431458-3 3v2h-2c-2.76005315-.0033061-4.99669388-2.2399468-5-5zm17 2v3h-3v-3zm-8 1c0-.5522847.4477153-1 1-1h2v3h-3zm10 2v-3h1.432c.2230805 1.0238612.5311478 2.0273377.921 3zm20 10c-9.3888407 0-17-7.6111593-17-17s7.6111593-17 17-17 17 7.6111593 17 17c-.010471 9.3845001-7.6154999 16.989529-17 17z" fill="#000000" data-original="#000000" class=""/>
          <path id="Shape" d="m41 26c-6.0641068.0025057-11.5301767 3.6560375-13.8513953 9.2582998-2.3212186 5.6022622-1.0409077 12.051062 3.2443953 16.3417002.1873289.1879162.4416616.2936783.707.294.2651948-.0000566.5195073-.1054506.707-.293l2.121-2.121c.3789722-.3923789.3735524-1.0160848-.0121814-1.4018186s-1.0094397-.3911536-1.4018186-.0121814l-1.387 1.387c-1.7967651-2.091623-2.8771079-4.7032982-3.083-7.453h1.956c.5522847 0 1-.4477153 1-1s-.4477153-1-1-1h-1.949c.2093145-2.7483095 1.291252-5.3578531 3.088-7.448l1.376 1.377c.3923789.3789722 1.0160848.3735524 1.4018186-.0121814s.3911536-1.0094397.0121814-1.4018186l-1.376-1.377c2.089858-1.7964315 4.6990906-2.8780349 7.447-3.087v1.949c0 .5522847.4477153 1 1 1s1-.4477153 1-1v-1.949c2.7479094.2089651 5.357142 1.2905685 7.447 3.087l-1.376 1.377c-.2599566.2510745-.3642126.6228779-.2726972.9725073.0915155.3496295.3645604.6226744.7141899.7141899.3496294.0915154.7214328-.0127406.9725073-.2726972l1.376-1.377c1.796748 2.0901469 2.8786855 4.6996905 3.088 7.448h-1.949c-.5522847 0-1 .4477153-1 1s.4477153 1 1 1h1.956c-.2053367 2.7515149-1.2860729 5.3650462-3.084 7.458l-1.387-1.387c-.3923789-.3789722-1.0160848-.3735524-1.4018186.0121814s-.3911536 1.0094397-.0121814 1.4018186c.7290527.8339559 1.5257628 1.6062496 2.382 2.309.3857709.1928869.8517459.1167024 1.156-.189 4.2891332-4.2904287 5.5715887-10.7420338 3.2494039-16.3466658s-7.7917374-9.2586565-13.8584039-9.2583342z" fill="#000000" data-original="#000000" class=""/>
          <path id="Shape" d="m45.43 31.1c-.2394842-.1140855-.5144851-.1283426-.7644829-.0396337s-.4545056.2731142-.5685171.5126337l-2.607 5.476c-1.9955998-.2435529-3.8611904 1.0341573-4.355332 2.9828903-.4941417 1.9487331.5372017 3.9610209 2.4077324 4.6978055 1.8705306.7367846 3.9971581-.031608 4.9647381-1.7938581s.474494-3.969021-1.1511385-5.1518377l2.544-5.354c.2359653-.4971358.0259259-1.0915024-.47-1.33zm-4.43 11.9c-1.1045695 0-2-.8954305-2-2s.8954305-2 2-2 2 .8954305 2 2-.8954305 2-2 2z" fill="#000000" data-original="#000000" class=""/>
          <circle id="Oval" cx="6" cy="44" r="1" fill="#000000" data-original="#000000" class=""/>
          <path id="Shape" d="m10 21c1.084 0 2 .687 2 1.5 0 .5522847.4477153 1 1 1s1-.4477153 1-1c-.1490337-2.0656278-1.9328688-3.6264835-4-3.5-2.06713116-.1264835-3.85096625 1.4343722-4 3.5.14903375 2.0656278 1.93286884 3.6264835 4 3.5 1.084 0 2 .687 2 1.5s-.916 1.5-2 1.5-2-.687-2-1.5c0-.5522847-.44771525-1-1-1s-1 .4477153-1 1c.14903375 2.0656278 1.93286884 3.6264835 4 3.5 2.0671312.1264835 3.8509663-1.4343722 4-3.5-.1490337-2.0656278-1.9328688-3.6264835-4-3.5-1.084 0-2-.687-2-1.5s.916-1.5 2-1.5z" fill="#000000" data-original="#000000" class=""/>
          <path id="Shape" d="m20 21c1.084 0 2 .687 2 1.5 0 .5522847.4477153 1 1 1s1-.4477153 1-1c-.1490337-2.0656278-1.9328688-3.6264835-4-3.5-2.0671312-.1264835-3.8509663 1.4343722-4 3.5.1490337 2.0656278 1.9328688 3.6264835 4 3.5 1.084 0 2 .687 2 1.5s-.916 1.5-2 1.5-2-.687-2-1.5c0-.5522847-.4477153-1-1-1s-1 .4477153-1 1c.1490337 2.0656278 1.9328688 3.6264835 4 3.5 2.0671312.1264835 3.8509663-1.4343722 4-3.5-.1490337-2.0656278-1.9328688-3.6264835-4-3.5-1.084 0-2-.687-2-1.5s.916-1.5 2-1.5z" fill="#000000" data-original="#000000" class=""/>
        </g>
      </g>
    </g>
  </g>
</svg>
