<?xml version="1.0" encoding="UTF-8"?>
<svg xmlns="http://www.w3.org/2000/svg" xmlns:xlink="http://www.w3.org/1999/xlink" xmlns:svgjs="http://svgjs.com/svgjs" version="1.1" width="512" height="512" x="0" y="0" viewBox="0 0 511 511.99862" style="enable-background:new 0 0 512 512" xml:space="preserve" class="">
  <g>
    <path xmlns="http://www.w3.org/2000/svg" d="m324.605469 329.933594-50.898438 7.457031-67.183593 150.378906c-.722657 1.613281-2.324219 2.652344-4.089844 2.652344l-168.667969-.019531c-3.648437 0-5.761719-4.132813-3.628906-7.089844l153.175781-212.605469 39.992188-96.542969c6.703124-16.179687 26.96875-21.539062 40.796874-10.785156l111.144532 61.597656c16.796875 9.308594 21.0625 31.5625 8.894531 46.425782l-36.273437 44.308594c-6.304688 7.804687-13.84375 11.003906-23.261719 14.222656zm0 0" fill="#ffe7cf" data-original="#ffe7cf"/>
    <path xmlns="http://www.w3.org/2000/svg" d="m375.246094 224.976562-18.515625-10.261718c.75 7.75-1.410157 15.832031-6.824219 22.449218l-19.894531 24.296876-78.316407-58.0625c-.191406 7.261718-1.90625 13.875-4.683593 19.863281l-.003907.015625 65.550782 49.296875c2.820312 2.121093 3.308594 6.167969 1.070312 8.898437-6.304687 7.808594-13.84375 11.007813-23.261718 14.226563l-45.292969 6.964843c-1.710938.261719-3.214844 1.277344-4.09375 2.769532l-8.140625 13.804687 38.933594 22.476563 1.933593-4.324219 50.898438-7.457031c9.417969-3.21875 16.957031-6.417969 23.261719-14.226563l36.273437-44.308593c12.167969-14.859376 7.902344-37.113282-8.894531-46.421876zm0 0" fill="#f2d7c0" data-original="#f2d7c0"/>
    <path xmlns="http://www.w3.org/2000/svg" d="m292.835938 192.773438 11.679687 9.332031c-5.578125 1.445312-11.671875.386719-16.441406-3.425781l-10.625-8.488282c5.121093-1.753906 10.925781-.984375 15.386719 2.582032zm0 0" fill="#e8d06b" data-original="#e8d06b"/>
    <path xmlns="http://www.w3.org/2000/svg" d="m199.5625 164.746094 234.019531 173.5c13.402344 9.933594 32.320313 7.121094 42.25-6.28125 9.929688-13.398438 7.117188-32.308594-6.277343-42.242188l-234.03125-173.507812c-12.476563-9.246094-21.542969-22.363282-25.78125-37.304688l-16.4375-57.976562c-2.6875-7-9.335938-11.683594-16.832032-11.859375l-67.402344-1.574219c-2.097656-.046875-4.085937.925781-5.332031 2.609375l-3.441406 4.644531c-2.121094 2.859375-1.527344 6.894532 1.332031 9.011719 9.167969 6.792969 28.710938 21.277344 43.734375 32.40625 10.988281 8.144531 13.292969 23.648437 5.148438 34.636719-8.140625 10.988281-23.648438 13.296875-34.636719 5.152344l-43.722656-32.398438c-2.863282-2.121094-6.898438-1.519531-9.019532 1.34375l-3.441406 4.640625c-1.246094 1.683594-1.597656 3.871094-.941406 5.859375l21.121094 64.03125c2.347656 7.117188 8.765625 12.117188 16.246094 12.648438l60.25-1.144532c15.527343-.296875 30.714843 4.558594 43.195312 13.804688zm0 0" fill="#e1effb" data-original="#e1effb"/>
    <path xmlns="http://www.w3.org/2000/svg" d="m470.890625 300.9375-234.023437-173.5c-12.476563-9.246094-27.664063-14.101562-43.195313-13.804688l-47.429687.902344c-8.328126.15625-16.484376-2.359375-23.277344-7.175781l-59.832032-42.453125-3.441406 4.640625c-1.246094 1.683594-1.597656 3.867187-.941406 5.859375l21.121094 64.03125c2.351562 7.117188 8.765625 12.113281 16.246094 12.648438l60.25-1.144532c15.527343-.296875 30.71875 4.558594 43.195312 13.804688l234.019531 173.5c13.402344 9.933594 32.320313 7.121094 42.25-6.28125 5.796875-7.824219 7.253907-17.527344 4.789063-26.226563-3.414063-.96875-6.714844-2.5625-9.730469-4.800781zm0 0" fill="#baced8" data-original="#baced8" class=""/>
    <path xmlns="http://www.w3.org/2000/svg" d="m362.035156 272.871094c9.441406 7.558594 23.222656 6.027344 30.777344-3.417969l23.359375-29.214844c7.546875-9.441406 6.015625-23.210937-3.421875-30.761719-9.441406-7.558593-23.21875-6.023437-30.773438 3.421876l-23.359374 29.210937c-7.550782 9.4375-6.019532 23.210937 3.417968 30.761719zm0 0" fill="#f2d7c0" data-original="#f2d7c0"/>
    <path xmlns="http://www.w3.org/2000/svg" d="m358.617188 242.109375 23.359374-29.214844c7.550782-9.445312 21.332032-10.976562 30.773438-3.417969 5.476562 4.378907 8.285156 10.855469 8.207031 17.363282-9.289062-5.800782-21.65625-3.855469-28.664062 4.910156l-23.359375 29.210938c-3.167969 3.964843-4.730469 8.691406-4.785156 13.402343-.722657-.453125-1.429688-.945312-2.113282-1.488281-9.4375-7.554688-10.96875-21.328125-3.417968-30.765625zm0 0" fill="#ffe7cf" data-original="#ffe7cf"/>
    <path xmlns="http://www.w3.org/2000/svg" d="m334.507812 237.027344c9.585938 7.671875 23.574219 6.117187 31.238282-3.472656l22.949218-28.695313c7.664063-9.582031 6.109376-23.5625-3.472656-31.230469-9.582031-7.667968-23.570312-6.113281-31.238281 3.472656l-22.945313 28.699219c-7.664062 9.582031-6.109374 23.5625 3.46875 31.226563zm0 0" fill="#f2d7c0" data-original="#f2d7c0"/>
    <path xmlns="http://www.w3.org/2000/svg" d="m331.039062 205.800781 22.945313-28.695312c7.667969-9.589844 21.65625-11.144531 31.238281-3.472657 5.492188 4.394532 8.339844 10.859376 8.332032 17.386719-9.449219-6.039062-22.132813-4.097656-29.292969 4.859375l-22.949219 28.699219c-3.269531 4.089844-4.855469 8.980469-4.859375 13.839844-.664063-.425781-1.316406-.886719-1.945313-1.390625-9.578124-7.664063-11.132812-21.644532-3.46875-31.226563zm0 0" fill="#ffe7cf" data-original="#ffe7cf"/>
    <path xmlns="http://www.w3.org/2000/svg" d="m299.703125 209.5625c9.585937 7.671875 23.574219 6.117188 31.238281-3.472656l22.949219-28.695313c7.660156-9.582031 6.105469-23.5625-3.472656-31.226562-9.585938-7.671875-23.574219-6.117188-31.238281 3.46875l-22.949219 28.699219c-7.660157 9.582031-6.109375 23.5625 3.472656 31.226562zm0 0" fill="#f2d7c0" data-original="#f2d7c0"/>
    <path xmlns="http://www.w3.org/2000/svg" d="m296.230469 178.335938 22.949219-28.699219c7.664062-9.585938 21.652343-11.140625 31.238281-3.46875.660156.527343 1.28125 1.089843 1.863281 1.675781-4.78125 1.058594-9.246094 3.691406-12.539062 7.8125l-22.949219 28.695312c-7.132813 8.921876-6.273438 21.652344 1.609375 29.550782-6.339844 1.402344-13.234375.035156-18.699219-4.339844-9.582031-7.664062-11.132813-21.644531-3.472656-31.226562zm0 0" fill="#ffe7cf" data-original="#ffe7cf"/>
    <path xmlns="http://www.w3.org/2000/svg" d="m265.828125 180.738281c9.585937 7.667969 23.574219 6.113281 31.238281-3.472656l22.949219-28.695313c7.664063-9.585937 6.109375-23.5625-3.472656-31.230468-9.585938-7.667969-23.570313-6.113282-31.238281 3.472656l-22.945313 28.695312c-7.664063 9.585938-6.109375 23.5625 3.46875 31.230469zm0 0" fill="#f2d7c0" data-original="#f2d7c0"/>
    <path xmlns="http://www.w3.org/2000/svg" d="m262.355469 149.507812 22.949219-28.695312c7.664062-9.585938 21.652343-11.140625 31.238281-3.472656 5.484375 4.390625 8.332031 10.847656 8.332031 17.367187-9.453125-6.050781-22.144531-4.113281-29.3125 4.851563l-22.945312 28.699218c-3.277344 4.09375-4.863282 8.992188-4.863282 13.859376-.65625-.421876-1.300781-.878907-1.925781-1.378907-9.578125-7.667969-11.132813-21.644531-3.472656-31.230469zm0 0" fill="#ffe7cf" data-original="#ffe7cf"/>
    <path xmlns="http://www.w3.org/2000/svg" d="m319.207031 189.992188-4.257812 5.320312c-6.695313 8.375-18.722657 9.882812-26.875 3.367188l-14.417969-11.519532c-7.058594-5.640625-17.488281-4.300781-23.238281 2.988282 12.355469 57.355468-67.101563 80.554687-67.101563 80.554687l21.863282-89.933594c1.183593-6.640625 4.007812-12.917969 8.214843-18.25l21.058594-26.6875c10.238281-12.976562 28.792969-15.371093 41.367187-5.339843l40.738282 32.503906c8.167968 6.519531 9.351562 18.609375 2.648437 26.996094zm0 0" fill="#ffe7cf" data-original="#ffe7cf"/>
    <path xmlns="http://www.w3.org/2000/svg" d="m258.734375 376.960938-109.523437-63.230469 17.519531-30.347657c.554687-.960937 1.78125-1.289062 2.738281-.734374l106.054688 61.230468c.957031.554688 1.285156 1.777344.730468 2.738282zm0 0" fill="#e1effb" data-original="#e1effb"/>
    <path xmlns="http://www.w3.org/2000/svg" d="m275.523438 343.878906-42.679688-24.640625-18.523438 32.082031 44.414063 25.640626 17.519531-30.34375c.554688-.960938.226563-2.183594-.730468-2.738282zm0 0" fill="#baced8" data-original="#baced8" class=""/>
    <path xmlns="http://www.w3.org/2000/svg" d="m268.242188 369.578125-117.917969-67.082031c-.941407-.535156-2.132813-.277344-2.765625.601562l-138.449219 192.164063c-2.78125 3.855469-.023437 9.238281 4.726563 9.238281h192.492187c2.300781 0 4.386719-1.355469 5.324219-3.453125l57.472656-128.765625c.445312-.996094.0625-2.164062-.882812-2.703125zm0 0" fill="#199afe" data-original="#395f80" class=""/>
    <path xmlns="http://www.w3.org/2000/svg" d="m268.242188 369.578125-43.699219-24.859375-71.320313 159.78125h53.105469c2.300781 0 4.386719-1.355469 5.324219-3.453125l57.472656-128.765625c.445312-.996094.0625-2.164062-.882812-2.703125zm0 0" fill="#008ffe" data-original="#275163" class=""/>
    <path xmlns="http://www.w3.org/2000/svg" d="m474.023438 283.699219-52.109376-38.632813.117188-.144531c10.117188-12.652344 8.054688-31.179687-4.59375-41.300781-4.925781-3.945313-10.847656-6.160156-17.035156-6.421875 2.257812-10.652344-1.429688-22.171875-10.492188-29.421875-6.199218-4.964844-13.960937-7.210938-21.851562-6.335938-.628906.070313-1.253906.160156-1.871094.265625-.496094-8.085937-4.273438-15.945312-11.082031-21.394531v-.003906c-6.199219-4.957032-13.960938-7.207032-21.855469-6.332032-.296875.035157-.59375.070313-.886719.113282-.179687-8.507813-3.984375-16.882813-11.132812-22.605469-6.199219-4.960937-13.960938-7.210937-21.851563-6.332031-7.890625.875-14.96875 4.773437-19.929687 10.976562l-4.066407 5.085938c-6.507812-3.578125-13.984374-5.050782-21.574218-4.179688-1.265625.144532-2.515625.355469-3.746094.625l-10.070312-7.46875c-11.085938-8.214844-19.265626-20.050781-23.03125-33.324218l-16.441407-57.976563c-.058593-.21875-.128906-.433594-.210937-.640625-3.792969-9.882812-13.078125-16.425781-23.660156-16.671875l-67.402344-1.57421875c-4.542969-.12890625-8.835938 2.00390575-11.535156 5.64453175l-3.441407 4.640624c-2.214843 2.992188-3.136719 6.667969-2.589843 10.347657.542968 3.6875 2.492187 6.941406 5.488281 9.15625l43.730469 32.410156c3.707031 2.746094 6.121093 6.765625 6.796874 11.328125.675782 4.558594-.460937 9.109375-3.207031 12.816406-5.667969 7.648438-16.496093 9.257813-24.144531 3.59375l-43.726562-32.40625c-2.992188-2.214844-6.671876-3.136718-10.355469-2.585937-3.6875.546875-6.9375 2.496093-9.15625 5.492187l-3.441407 4.640625c-2.691406 3.636719-3.457031 8.375-2.039062 12.675781l5.671875 17.191407c1.300781 3.933593 5.542969 6.074219 9.472656 4.773437 3.933594-1.296875 6.070313-5.539062 4.773438-9.472656l-5.5-16.675781 2.488281-3.359375 42.878906 31.773437c14.292969 10.589844 34.539063 7.578125 45.128906-6.714843 5.132813-6.921876 7.257813-15.429688 5.992188-23.953126-1.265625-8.523437-5.777344-16.042968-12.703125-21.171874l-42.878906-31.777344 2.488281-3.359375 66.863281 1.5625c4.375.101562 8.226563 2.75 9.894531 6.773437l16.332032 57.609375c4.664062 16.445313 14.796875 31.105469 28.53125 41.285157l3.675781 2.722656c-1.832031 1.464844-3.539063 3.113281-5.101563 4.929687-.007812.007813-.015624.019531-.027343.027344-.101563.117187-.199219.234375-.300781.355469-.023438.027344-.042969.054687-.066407.082031-.089843.105469-.179687.214844-.265625.320313-.027344.03125-.054687.066406-.078125.097656-.109375.132812-.222656.269531-.328125.410156l-21.0625 26.683594c-.277344.355468-.550781.714844-.820312 1.078125-.007813.007812-.015625.015625-.023438.027343-.121094.164063-.242187.328126-.359375.492188-.023437.03125-.050781.066406-.074219.101562-.105468.144532-.207031.289063-.308593.433594-.019531.027344-.039063.050782-.054688.074219l-1.835937-1.359375c-13.734375-10.175781-30.699219-15.597656-47.804688-15.277344l-59.867187 1.136719c-4.335938-.421875-7.992188-3.335937-9.363281-7.492187l-4.207032-12.75c-1.296875-3.933594-5.535156-6.074219-9.472656-4.773438-3.933594 1.296875-6.070312 5.539062-4.773438 9.472656l4.207032 12.75c3.316406 10.050782 12.28125 17.03125 22.835937 17.78125.226563.015625.453125.023438.675781.019532l60.25-1.144532c13.78125-.28125 27.5 4.113282 38.585938 12.328125l4.070312 3.019531c-.546874 1.78125-.992187 3.59375-1.328124 5.429688l-21.464844 88.292969-5.527344 7.671875c-4.03125-1.039063-8.429688.675781-10.609375 4.449218l-8.839844 15.320313c-3.679687-.835937-7.613281.554687-9.921875 3.761719l-138.449218 192.164062c-2.9375005 4.078125-3.339844 9.390625-1.050782 13.867188 2.292969 4.472656 6.839844 7.253906 11.863282 7.253906h192.492187c5.253906 0 10.03125-3.101562 12.171875-7.898438l7.886719-17.664062c1.6875-3.78125-.011719-8.214844-3.792969-9.902344-3.78125-1.691406-8.21875.007813-9.90625 3.789063l-7.441406 16.675781h-188.144532l133.714844-185.59375 109.472656 62.273438-32.933593 73.78125c-1.6875 3.785156.011719 8.21875 3.792969 9.90625 3.78125 1.691406 8.21875-.007813 9.90625-3.792969l34.921874-78.238281c1.597657-3.585938.855469-7.625-1.652343-10.378907l8.425781-14.589843c1.210938-2.097657 1.574219-4.527344 1.035156-6.875l41.90625-6.136719c.457032-.066407.902344-.175781 1.339844-.324219 9.644531-3.296875 18.945312-7.046875 26.640625-16.570312l16.363281-19.992188 59.082032 43.800781c6.5625 4.867188 14.347656 7.421875 22.371093 7.421875 1.863281 0 3.742188-.136718 5.621094-.414062 9.964844-1.484375 18.753906-6.753906 24.75-14.847656 12.375-16.699219 8.859375-40.351563-7.835937-52.730469zm-153.214844-83.703125 4.257812-5.320313c.285156-.355469.558594-.71875.824219-1.085937.132813-.183594.261719-.367188.390625-.554688.128906-.183594.253906-.371094.375-.5625 3.4375-5.273437 4.933594-11.488281 4.230469-17.773437-.011719-.109375-.023438-.214844-.039063-.320313-.003906-.035156-.007812-.066406-.011718-.097656-.007813-.070312-.015626-.144531-.027344-.214844-.003906-.046875-.011719-.089844-.019532-.136718-.007812-.058594-.015624-.121094-.023437-.183594-.007813-.042969-.015625-.089844-.023437-.132813-.007813-.0625-.015626-.121093-.027344-.179687-.007813-.050782-.015625-.097656-.023438-.148438-.007812-.054687-.019531-.105468-.027344-.160156-.007812-.050781-.015624-.097656-.027343-.148438-.007813-.058593-.019531-.113281-.03125-.171874-.007813-.046876-.015625-.09375-.023438-.136719-.011719-.054688-.023437-.113281-.035156-.167969-.007813-.050781-.019531-.101562-.027344-.152344-.011719-.054687-.023437-.105468-.035156-.15625-.007813-.054687-.019531-.105468-.03125-.15625-.011719-.050781-.023437-.097656-.035156-.148437-.011719-.054688-.019531-.105469-.03125-.160157-.011719-.050781-.023438-.101562-.035157-.152343-.015624-.050781-.027343-.101563-.039062-.15625-.011719-.046875-.023438-.09375-.035156-.136719-.011719-.058594-.027344-.117188-.039063-.171875-.011719-.042969-.023437-.085937-.035156-.128906-.015625-.054688-.027344-.113281-.042969-.171875-.011718-.042969-.023437-.085938-.039062-.132813-.015625-.054687-.027344-.113281-.046875-.171875-.007813-.039062-.019531-.074218-.03125-.113281-.015625-.0625-.035157-.125-.050781-.1875-.011719-.039063-.023438-.078125-.035157-.113281-.019531-.0625-.035156-.121094-.054687-.183594-.011719-.042969-.027344-.089844-.042969-.136719-.066406-.222656-.136719-.441406-.210937-.660156-.011719-.027344-.019532-.050781-.027344-.078125-.023438-.066406-.046875-.132812-.070313-.199219-.011719-.03125-.019531-.058593-.03125-.089843-.023437-.0625-.042969-.121094-.066406-.183594-.011719-.035156-.027344-.074219-.042969-.113282-.019531-.054687-.039062-.105468-.058594-.160156-.015624-.042968-.03125-.085937-.050781-.132812-.019531-.054688-.042969-.109375-.0625-.164063-.015625-.039062-.03125-.078125-.046875-.117187-.023437-.058594-.046875-.117188-.070312-.175782-.015625-.035156-.03125-.074218-.046875-.113281-.019531-.054687-.042969-.109375-.066407-.164062-.019531-.042969-.035156-.085938-.054687-.128907-.019531-.050781-.042969-.101562-.066406-.15625-.015625-.042968-.035157-.082031-.054688-.125-.019531-.050781-.046875-.105468-.066406-.15625-.019531-.042968-.039063-.085937-.058594-.128906-.023437-.050781-.046875-.101562-.070312-.15625-.019531-.039062-.035157-.074218-.054688-.113281-.027343-.054687-.050781-.109375-.078125-.164063-.019531-.042968-.035156-.082031-.058594-.121093-.023437-.050781-.046874-.105469-.074218-.15625-.019532-.042969-.042969-.082031-.0625-.125-.023438-.050781-.046875-.097657-.074219-.148438-.023437-.042969-.042969-.089843-.066406-.132812-.023438-.046875-.050781-.09375-.074219-.144531-.019531-.039063-.039062-.078126-.0625-.117188-.027344-.054688-.054688-.105469-.082031-.15625-.015625-.03125-.03125-.0625-.050781-.09375-.046876-.085938-.09375-.171875-.140626-.261719-.035156-.058593-.066406-.121093-.101562-.179687-.019531-.035156-.039062-.066406-.058594-.101563-.03125-.054687-.0625-.109375-.09375-.164062-.023437-.042969-.046875-.082031-.070312-.125-.03125-.046875-.058594-.097657-.089844-.144531-.019531-.035157-.039062-.070313-.0625-.105469-.035156-.054688-.066406-.109375-.097656-.160157-.023438-.035156-.042969-.070312-.066406-.109374-.03125-.050782-.0625-.101563-.097657-.15625-.023437-.039063-.046875-.074219-.074219-.113282-.027343-.046875-.058593-.09375-.089843-.140625-.027344-.042969-.054688-.085937-.082031-.128906-.027344-.042969-.054688-.085937-.085938-.128906-.027344-.042969-.054688-.085938-.085938-.125-.027343-.046875-.058593-.089844-.089843-.132813-.027344-.042968-.054688-.082031-.082031-.121094-.03125-.046874-.0625-.089843-.09375-.136718-.027344-.039063-.054688-.078125-.082032-.117188-.03125-.046875-.0625-.089844-.097656-.136718-.027344-.039063-.054688-.078126-.085938-.117188-.03125-.046875-.066406-.09375-.097656-.136719-.027344-.035156-.054687-.070312-.082031-.109375-.035156-.050781-.074219-.101562-.113281-.152344-.023438-.03125-.046875-.058593-.070313-.089843-.042969-.054688-.085937-.113281-.128906-.167969-.019531-.023438-.039063-.050781-.058594-.078125-.046875-.058594-.097656-.121094-.144531-.179687-.015625-.023438-.03125-.042969-.046875-.0625-.058594-.074219-.121094-.148438-.179687-.222657-.003907-.003906-.011719-.011719-.015626-.019531-.269531-.324219-.546874-.644531-.832031-.960938-.007812-.007812-.015625-.015624-.019531-.023437-.066406-.070313-.128906-.140625-.195312-.207031-.007813-.011719-.015626-.023438-.027344-.03125-.0625-.070313-.125-.136719-.191406-.207032-.007813-.003906-.015626-.011718-.019532-.019531-.066406-.070312-.132812-.136719-.199218-.207031-.011719-.007812-.019532-.019531-.027344-.027344-.066406-.066406-.132813-.132812-.195313-.199218-.011719-.007813-.023437-.019532-.035156-.03125-.0625-.066407-.128906-.128907-.195313-.191407-.007812-.011719-.019531-.019531-.03125-.03125-.066406-.0625-.132812-.128906-.203124-.195312-.007813-.007813-.015626-.015625-.023438-.023438-.074219-.070312-.144531-.136719-.214844-.203125-.003906-.003906-.011718-.007812-.015625-.011718-.175781-.164063-.355469-.328126-.539062-.488282l2.867187-3.589844c2.457032-3.070312 5.964844-5.003906 9.875-5.4375 3.910156-.429687 7.753906.679688 10.824219 3.136719 5.925781 4.746094 7.210937 13.175781 3.203125 19.433594-.277344.316406-.546875.636719-.808594.964844l-22.945312 28.695312c-.347656.433594-.679688.871094-.996094 1.316407-2.378906 2.476562-5.519531 4.03125-8.972656 4.414062-.878906.097656-1.753906.117188-2.621094.058594 3.074219-1.679688 5.882812-3.988282 8.214844-6.90625zm27.152344 65.433594-88.777344-65.816407c-.09375-2.269531-.316406-4.558593-.667969-6.871093 1.226563-.820313 2.625-1.34375 4.113281-1.511719 2.316406-.269531 4.566406.367187 6.34375 1.789062l14.421875 11.519531c1.5 1.199219 3.097657 2.203126 4.753907 3.019532 1.808593 3.015625 4.109374 5.652344 6.867187 7.859375 5.324219 4.261719 11.796875 6.519531 18.515625 6.519531 1.105469 0 2.222656-.0625 3.339844-.183594.628906-.070312 1.253906-.160156 1.871094-.269531.496093 8.089844 4.273437 15.949219 11.082031 21.398437 4.976562 3.984376 10.960937 6.21875 17.210937 6.492188-1.1875 5.339844-.851562 10.914062.925782 16.054688zm-56.800782-139.933594c2.457032-3.070313 5.964844-5.003906 9.871094-5.4375 3.910156-.433594 7.753906.679687 10.828125 3.136718 6.335937 5.070313 7.367187 14.351563 2.296875 20.6875l-3.710938 4.644532-23.015624-18.363282zm-29.632812 231.632812-96.890625-55.121094 5.84375-10.113281 96.53125 55.730469zm80.507812-46.132812c-4.664062 5.769531-10.167968 8.496094-19.207031 11.621094l-50.207031 7.351562c-1.316406.191406-2.535156.730469-3.550782 1.527344l-84.964843-49.054688 5.195312-7.210937c.328125-.4375.613281-.914063.847657-1.425781.007812-.023438.019531-.046876.03125-.070313.007812-.019531.015624-.039063.023437-.058594.191406-.4375.335937-.886719.4375-1.347656l21.828125-89.785156c.035156-.148438.066406-.300781.09375-.453125.90625-5.0625 2.996094-9.90625 6.070312-14.070313.007813-.011719.015626-.019531.023438-.027343.050781-.070313.101562-.140626.152344-.207032.15625-.210937.316406-.414062.476562-.621094l21.058594-26.6875c.085938-.105468.171875-.214843.257812-.320312.003907-.003906.003907-.003906.007813-.007812 2.730469-3.335938 6.296875-5.816407 10.332031-7.179688.101563-.035156.203125-.070312.304688-.109375 1.378906-.445313 2.8125-.753906 4.277344-.921875 5.683593-.652344 11.230468.914062 15.621093 4.417969l1.039063.828125c.007812.007812.015625.015625.023437.023437l34.726563 27.703125c.007812.007813.019531.015625.027344.023438l4.925781 3.925781c2.304687 1.839844 3.761719 4.507813 4.097656 7.507813.054687.5.078125.996093.074219 1.492187-.003906.199219-.011719.398437-.023438.59375-.011718.199219-.03125.398437-.054687.59375-.253907 2.253906-1.152344 4.414063-2.628907 6.257813l-4.253906 5.324218c-.0625.078125-.125.152344-.1875.230469-.007812.007813-.015625.019531-.023437.027344-.054688.0625-.105469.125-.160157.183593-.015624.019532-.03125.035157-.042968.054688-.050782.054688-.101563.109375-.148438.160156-.015625.019532-.03125.035156-.046875.050782-.058593.066406-.121093.128906-.179687.191406-.03125.03125-.0625.0625-.09375.09375s-.058594.058594-.089844.089844c-.039062.039062-.078125.078124-.117188.113281-.019531.019531-.039062.039062-.058593.058593-.046875.042969-.09375.085938-.140625.132813-3.214844 2.957031-7.757813 3.996094-11.828125 2.574219-.105469-.039063-.214844-.074219-.324219-.105469-1.023438-.394531-2-.945313-2.894531-1.660156l-14.421875-11.523438c-4.917969-3.929687-11.105469-5.699219-17.417969-4.972656-6.433594.738281-12.210937 3.949219-16.285156 9.050781-1.324219 1.609375-1.96875 3.75-1.621094 5.9375v.003906c.019531.136719.046875.273438.074219.410157.839844 3.886719 1.214844 7.746093 1.113281 11.46875-.003906.191406 0 .382812.007813.570312-.339844 9.074219-3.515626 17.519531-9.578126 25.585938-2.488281 3.3125-1.824218 8.011719 1.488282 10.503906 3.308594 2.484375 8.011718 1.816406 10.5-1.488281 5.121094-6.8125 8.6875-13.984375 10.691406-21.476563l100.664062 74.632813zm7.984375-76.6875c-3.910156.433594-7.753906-.679688-10.824219-3.136719-5.929687-4.746094-7.214843-13.175781-3.203124-19.429687.277343-.316407.542968-.636719.808593-.964844l22.945313-28.699219c.347656-.429687.675781-.871094.996094-1.3125 2.378906-2.476563 5.519531-4.03125 8.972656-4.414063.554687-.0625 1.105468-.09375 1.65625-.09375 3.328125 0 6.53125 1.121094 9.167968 3.230469 6.335938 5.070313 7.367188 14.351563 2.300782 20.6875l-4.238282 5.296875c-.875.855469-1.703124 1.769532-2.480468 2.738282l-18.03125 22.550781c-2.246094 1.972656-5.039063 3.210937-8.070313 3.546875zm16.703125 32.707031c-6.195312-4.953125-7.203125-14.027344-2.25-20.222656l4.636719-5.796875c.878906-.859375 1.714844-1.78125 2.496094-2.757813l18.011719-22.523437c2.191406-1.917969 4.910156-3.121094 7.867187-3.453125.539063-.058594 1.082031-.089844 1.617187-.089844 3.253907 0 6.386719 1.097656 8.964844 3.15625 6.191406 4.957031 7.203125 14.03125 2.246094 20.226563l-4.902344 6.132812c-.042968.050781-.085937.105469-.128906.160156l-18.328125 22.921875c-2.402344 3-5.828125 4.890625-9.648437 5.3125-3.820313.425781-7.578126-.664062-10.582032-3.066406zm103.085938 60.484375c-3.613282 4.871094-8.90625 8.046875-14.902344 8.9375-6 .890625-11.984375-.605469-16.855469-4.21875l-63.484375-47.0625c.363282.011719.726563.019531 1.089844.019531 1.097656 0 2.199219-.0625 3.304688-.183593 7.804687-.867188 14.804687-4.722657 19.707031-10.855469l13.871093-17.347657 52.550782 38.960938c10.050781 7.453125 12.167968 21.695312 4.71875 31.75zm0 0" fill="#000000" data-original="#000000" class=""/>
  </g>
</svg>
